<?xml version="1.0" standalone="no"?>
<!DOCTYPE svg PUBLIC "-//W3C//DTD SVG 20010904//EN"
 "http://www.w3.org/TR/2001/REC-SVG-20010904/DTD/svg10.dtd">
<svg version="1.0" xmlns="http://www.w3.org/2000/svg"
 width="2048.000000pt" height="2048.000000pt" viewBox="0 0 2048.000000 2048.000000"
 preserveAspectRatio="xMidYMid meet">
<metadata>
Created by potrace 1.11, written by Peter Selinger 2001-2013
</metadata>
<g transform="translate(0.000000,2048.000000) scale(0.100000,-0.100000)"
fill="#000000" stroke="none">
<path d="M12475 18654 c-60 -18 -142 -42 -182 -54 -40 -11 -79 -27 -87 -35 -8
-8 -20 -15 -26 -15 -7 0 -25 -13 -40 -30 -15 -16 -33 -30 -40 -30 -7 0 -25
-13 -40 -30 -15 -16 -33 -30 -40 -30 -7 0 -25 -13 -40 -30 -15 -16 -33 -30
-40 -30 -7 0 -25 -13 -40 -30 -15 -16 -33 -30 -40 -30 -6 0 -29 -18 -50 -40
-21 -22 -44 -40 -50 -40 -6 0 -42 -31 -80 -70 -38 -38 -75 -70 -82 -70 -8 0
-20 -10 -28 -22 -8 -11 -43 -50 -77 -84 -35 -35 -63 -68 -63 -74 0 -6 -49 -60
-110 -120 -60 -60 -110 -114 -110 -120 0 -6 -27 -38 -60 -70 -33 -32 -60 -64
-60 -70 0 -6 -22 -33 -50 -60 -27 -27 -50 -54 -50 -60 0 -6 -18 -29 -40 -50
-22 -21 -40 -44 -40 -50 0 -7 -13 -25 -30 -40 -16 -15 -30 -33 -30 -40 0 -7
-13 -25 -30 -40 -16 -15 -30 -33 -30 -40 0 -7 -13 -25 -30 -40 -16 -15 -30
-34 -30 -42 0 -7 -9 -20 -20 -28 -11 -8 -20 -21 -20 -28 0 -8 -13 -27 -30 -42
-16 -15 -30 -34 -30 -42 0 -7 -9 -20 -20 -28 -11 -8 -20 -21 -20 -30 0 -9 -9
-22 -20 -30 -11 -8 -20 -19 -20 -25 0 -6 -9 -17 -20 -25 -11 -8 -20 -21 -20
-30 0 -9 -9 -22 -20 -30 -11 -8 -20 -21 -20 -30 0 -9 -9 -22 -20 -30 -11 -8
-20 -22 -20 -32 0 -10 -4 -18 -10 -18 -5 0 -10 -8 -10 -18 0 -10 -9 -24 -20
-32 -11 -8 -20 -21 -20 -30 0 -9 -9 -22 -20 -30 -11 -8 -20 -22 -20 -32 0 -10
-4 -18 -10 -18 -5 0 -10 -8 -10 -18 0 -10 -9 -24 -20 -32 -11 -8 -20 -21 -20
-30 0 -9 -9 -22 -20 -30 -11 -8 -20 -21 -20 -30 0 -9 -9 -22 -20 -30 -11 -8
-20 -22 -20 -32 0 -10 -4 -18 -10 -18 -5 0 -10 -8 -10 -18 0 -10 -9 -24 -20
-32 -11 -8 -20 -21 -20 -30 0 -9 -9 -22 -20 -30 -11 -8 -20 -21 -20 -30 0 -9
-9 -22 -20 -30 -11 -8 -20 -21 -20 -30 0 -9 -9 -22 -20 -30 -11 -8 -20 -21
-20 -30 0 -9 -9 -22 -20 -30 -11 -8 -20 -21 -20 -30 0 -9 -9 -22 -20 -30 -11
-8 -20 -20 -20 -28 0 -16 -45 -62 -60 -62 -6 0 -42 32 -80 70 -38 39 -75 70
-82 70 -8 0 -20 9 -28 20 -8 11 -21 20 -30 20 -9 0 -22 9 -30 20 -8 11 -21 20
-30 20 -9 0 -22 9 -30 20 -8 11 -22 20 -32 20 -10 0 -18 5 -18 10 0 6 -8 10
-18 10 -10 0 -24 9 -32 20 -8 11 -21 20 -30 20 -9 0 -22 9 -30 20 -8 11 -22
20 -32 20 -10 0 -18 5 -18 10 0 6 -8 10 -18 10 -10 0 -24 9 -32 20 -8 11 -22
20 -32 20 -10 0 -18 5 -18 10 0 6 -8 10 -18 10 -10 0 -24 9 -32 20 -8 11 -22
20 -32 20 -10 0 -18 5 -18 10 0 6 -9 10 -20 10 -11 0 -20 5 -20 10 0 6 -8 10
-18 10 -10 0 -24 9 -32 20 -8 11 -22 20 -32 20 -10 0 -18 5 -18 10 0 6 -8 10
-18 10 -10 0 -24 9 -32 20 -8 11 -22 20 -32 20 -10 0 -18 5 -18 10 0 6 -9 10
-20 10 -11 0 -20 5 -20 10 0 6 -9 10 -20 10 -11 0 -20 5 -20 10 0 6 -9 10 -20
10 -11 0 -20 5 -20 10 0 6 -9 10 -20 10 -11 0 -20 5 -20 10 0 6 -9 10 -20 10
-11 0 -20 5 -20 10 0 6 -9 10 -20 10 -11 0 -20 5 -20 10 0 6 -13 10 -30 10
-16 0 -30 5 -30 10 0 6 -9 10 -20 10 -11 0 -20 5 -20 10 0 6 -13 10 -30 10
-16 0 -30 5 -30 10 0 6 -13 10 -30 10 -16 0 -30 5 -30 10 0 6 -13 10 -30 10
-16 0 -30 5 -30 10 0 6 -13 10 -30 10 -16 0 -30 5 -30 10 0 6 -13 10 -30 10
-16 0 -30 5 -30 10 0 6 -18 10 -40 10 -22 0 -40 5 -40 10 0 6 -18 10 -40 10
-22 0 -40 5 -40 10 0 6 -18 10 -40 10 -22 0 -40 5 -40 10 0 6 -22 10 -50 10
-27 0 -50 5 -50 10 0 6 -18 10 -40 10 -22 0 -40 5 -40 10 0 6 -25 10 -55 10
-30 0 -55 4 -55 9 0 5 -63 12 -140 16 -77 4 -140 11 -140 16 0 5 -40 9 -90 9
-53 0 -90 4 -90 10 0 6 -43 10 -110 10 -67 0 -110 4 -110 10 0 6 -63 10 -170
10 -107 0 -170 4 -170 10 0 7 -233 10 -680 10 -447 0 -680 -3 -680 -10 0 -6
-37 -10 -90 -10 -53 0 -90 -4 -90 -10 0 -6 -27 -10 -60 -10 -33 0 -60 -4 -60
-10 0 -5 -18 -10 -40 -10 -22 0 -40 -4 -40 -9 0 -5 -27 -12 -60 -16 -33 -4
-60 -11 -60 -16 0 -5 -13 -9 -30 -9 -16 0 -30 -4 -30 -10 0 -5 -13 -10 -30
-10 -16 0 -30 -4 -30 -10 0 -5 -13 -10 -30 -10 -16 0 -30 -4 -30 -10 0 -5 -7
-10 -15 -10 -8 0 -44 -45 -80 -99 l-65 -100 0 -200 c0 -127 4 -201 10 -201 6
0 10 -13 10 -30 0 -16 5 -30 10 -30 6 0 10 -13 10 -30 0 -16 5 -30 10 -30 6 0
10 -7 10 -15 0 -20 125 -145 145 -145 8 0 15 -4 15 -10 0 -5 9 -10 20 -10 11
0 20 -4 20 -10 0 -5 14 -10 30 -10 17 0 30 -4 30 -10 0 -5 14 -10 30 -10 17 0
30 -4 30 -10 0 -5 14 -10 30 -10 17 0 30 -4 30 -10 0 -5 9 -10 20 -10 11 0 20
-4 20 -10 0 -5 8 -10 18 -10 10 0 24 -9 32 -20 8 -11 20 -20 27 -20 17 0 123
-105 123 -122 1 -7 36 -30 78 -50 88 -43 195 -135 257 -222 33 -46 55 -64 130
-103 49 -27 114 -66 145 -88 30 -23 78 -49 105 -59 28 -11 88 -43 133 -73 120
-78 180 -103 252 -103 33 0 60 -4 60 -10 0 -6 30 -10 70 -10 40 0 70 -4 70
-10 0 -5 23 -10 50 -10 28 0 50 -4 50 -10 0 -5 18 -10 40 -10 22 0 40 -4 40
-10 0 -5 14 -10 30 -10 17 0 30 -4 30 -10 0 -5 14 -10 30 -10 17 0 30 -4 30
-10 0 -5 9 -10 20 -10 11 0 20 -4 20 -10 0 -5 9 -10 20 -10 11 0 20 -4 20 -9
0 -5 12 -12 28 -16 15 -3 54 -19 87 -35 75 -36 161 -67 245 -87 52 -13 138
-17 425 -19 379 -2 545 -10 545 -25 0 -5 9 -9 20 -9 11 0 20 -4 20 -10 0 -5 7
-10 15 -10 20 0 65 -45 65 -65 0 -8 5 -15 10 -15 6 0 10 -9 10 -20 0 -11 5
-20 10 -20 6 0 10 -9 10 -20 0 -11 5 -20 10 -20 21 0 9 -32 -25 -65 -19 -19
-41 -35 -50 -35 -8 0 -15 -4 -15 -10 0 -5 -18 -10 -40 -10 -22 0 -40 -4 -40
-10 0 -5 -22 -10 -48 -10 -26 0 -52 -4 -58 -9 -5 -5 -27 -11 -49 -13 -49 -6
-227 -41 -352 -69 -84 -20 -109 -21 -320 -15 -125 3 -239 6 -253 7 -14 0 -67
11 -118 25 -57 14 -122 24 -165 24 -40 0 -163 16 -275 35 -182 31 -223 35
-388 35 -116 0 -184 -4 -184 -10 0 -6 -47 -10 -120 -10 -73 0 -120 -4 -120
-10 0 -6 -40 -10 -100 -10 -60 0 -100 -4 -100 -10 0 -6 -30 -10 -70 -10 -40 0
-70 -4 -70 -10 0 -6 -30 -10 -70 -10 -40 0 -70 -4 -70 -10 0 -5 -18 -10 -40
-10 -22 0 -40 -4 -40 -10 0 -5 -18 -10 -40 -10 -22 0 -40 -4 -40 -10 0 -5 -18
-10 -40 -10 -22 0 -40 -4 -40 -10 0 -5 -13 -10 -30 -10 -16 0 -30 -4 -30 -10
0 -5 -13 -10 -30 -10 -16 0 -30 -4 -30 -10 0 -5 -13 -10 -30 -10 -16 0 -30 -4
-30 -10 0 -5 -13 -10 -30 -10 -16 0 -30 -4 -30 -10 0 -5 -13 -10 -30 -10 -16
0 -30 -4 -30 -10 0 -5 -9 -10 -20 -10 -11 0 -20 -4 -20 -10 0 -5 -13 -10 -30
-10 -16 0 -30 -4 -30 -10 0 -5 -9 -10 -20 -10 -11 0 -20 -4 -20 -10 0 -5 -13
-10 -30 -10 -16 0 -30 -4 -30 -10 0 -5 -9 -10 -20 -10 -11 0 -20 -4 -20 -10 0
-5 -9 -10 -20 -10 -11 0 -20 -4 -20 -10 0 -5 -13 -10 -30 -10 -16 0 -30 -4
-30 -10 0 -5 -9 -10 -20 -10 -11 0 -20 -4 -20 -10 0 -5 -9 -10 -20 -10 -11 0
-20 -4 -20 -10 0 -5 -9 -10 -20 -10 -11 0 -20 -4 -20 -10 0 -5 -13 -10 -30
-10 -16 0 -30 -4 -30 -10 0 -5 -9 -10 -20 -10 -11 0 -20 -4 -20 -10 0 -5 -7
-10 -15 -10 -8 0 -15 -4 -15 -10 0 -5 -9 -10 -20 -10 -11 0 -20 -4 -20 -10 0
-5 -13 -10 -30 -10 -16 0 -30 -4 -30 -10 0 -5 -9 -10 -20 -10 -11 0 -20 -4
-20 -10 0 -5 -9 -10 -20 -10 -11 0 -20 -4 -20 -10 0 -5 -9 -10 -20 -10 -11 0
-20 -4 -20 -10 0 -5 -9 -10 -20 -10 -11 0 -20 -4 -20 -10 0 -5 -9 -10 -20 -10
-11 0 -20 -4 -20 -10 0 -5 -13 -10 -30 -10 -16 0 -30 -4 -30 -10 0 -5 -9 -10
-20 -10 -11 0 -20 -4 -20 -10 0 -5 -9 -10 -20 -10 -11 0 -20 -4 -20 -10 0 -5
-9 -10 -20 -10 -11 0 -20 -4 -20 -10 0 -5 -9 -10 -20 -10 -11 0 -20 -4 -20
-10 0 -5 -9 -10 -20 -10 -11 0 -20 -4 -20 -10 0 -5 -9 -10 -20 -10 -11 0 -20
-4 -20 -10 0 -5 -9 -10 -20 -10 -11 0 -20 -4 -20 -10 0 -5 -9 -10 -20 -10 -19
0 -20 -7 -20 -255 0 -163 4 -255 10 -255 6 0 10 -13 10 -30 0 -16 5 -30 10
-30 6 0 10 -7 10 -15 0 -20 125 -145 145 -145 8 0 15 -4 15 -10 0 -5 14 -10
30 -10 17 0 30 -4 30 -10 0 -5 14 -10 30 -10 17 0 30 -4 30 -10 0 -6 33 -10
80 -10 47 0 80 -4 80 -10 0 -6 27 -10 60 -10 33 0 60 -4 60 -10 0 -5 18 -10
40 -10 22 0 40 -4 40 -10 0 -5 7 -10 15 -10 8 0 15 -4 15 -10 0 -5 9 -10 20
-10 11 0 20 -4 20 -10 0 -5 7 -10 15 -10 19 0 105 -84 105 -103 0 -7 9 -19 20
-27 14 -10 20 -26 20 -52 0 -21 5 -38 10 -38 6 0 10 -13 10 -30 0 -16 5 -30
10 -30 6 0 10 -9 10 -20 0 -11 5 -20 10 -20 6 0 10 -7 10 -15 0 -20 45 -65 65
-65 8 0 15 -4 15 -10 0 -6 37 -10 90 -10 53 0 90 4 90 10 0 6 9 10 20 10 11 0
20 5 20 10 0 6 14 10 30 10 17 0 30 5 30 10 0 6 14 10 30 10 17 0 30 5 30 10
0 6 9 10 20 10 11 0 20 5 20 10 0 6 14 10 30 10 17 0 30 5 30 10 0 6 14 10 30
10 17 0 30 5 30 10 0 6 9 10 20 10 11 0 20 5 20 10 0 6 14 10 30 10 17 0 30 5
30 10 0 6 14 10 30 10 17 0 30 5 30 10 0 6 14 10 30 10 17 0 30 5 30 10 0 6
13 10 29 10 16 0 31 5 33 12 3 9 85 13 329 14 178 0 342 4 364 8 22 4 171 0
330 -8 243 -12 297 -18 335 -34 63 -27 74 -43 66 -96 -4 -24 -12 -49 -19 -55
-7 -5 -45 -19 -84 -30 -39 -10 -102 -37 -140 -59 -37 -22 -104 -54 -148 -72
-86 -34 -146 -70 -270 -165 -44 -34 -108 -78 -141 -99 -35 -21 -75 -56 -93
-81 -17 -24 -49 -57 -71 -72 -22 -15 -40 -34 -40 -41 0 -8 -13 -27 -30 -42
-16 -15 -30 -33 -30 -40 0 -7 -13 -25 -30 -40 -16 -15 -30 -34 -30 -42 0 -7
-9 -20 -20 -28 -11 -8 -20 -21 -20 -30 0 -9 -9 -22 -20 -30 -11 -8 -20 -21
-20 -30 0 -9 -9 -22 -20 -30 -11 -8 -20 -21 -20 -30 0 -9 -9 -22 -20 -30 -11
-8 -20 -22 -20 -32 0 -10 -4 -18 -10 -18 -5 0 -10 -8 -10 -18 0 -10 -9 -24
-20 -32 -11 -8 -20 -21 -20 -30 0 -9 -9 -22 -20 -30 -11 -8 -20 -21 -20 -30 0
-9 -9 -22 -20 -30 -11 -8 -20 -22 -20 -32 0 -10 -4 -18 -10 -18 -5 0 -10 -8
-10 -18 0 -10 -9 -24 -20 -32 -11 -8 -20 -22 -20 -32 0 -10 -4 -18 -10 -18 -5
0 -10 -8 -10 -18 0 -10 -9 -24 -20 -32 -11 -8 -20 -21 -20 -30 0 -9 -9 -22
-20 -30 -11 -8 -20 -22 -20 -32 0 -10 -4 -18 -10 -18 -5 0 -10 -9 -10 -20 0
-11 -4 -20 -10 -20 -5 0 -10 -8 -10 -18 0 -10 -9 -24 -20 -32 -11 -8 -20 -22
-20 -32 0 -10 -4 -18 -10 -18 -5 0 -10 -9 -10 -20 0 -11 -4 -20 -10 -20 -5 0
-10 -9 -10 -20 0 -11 -4 -20 -10 -20 -5 0 -10 -9 -10 -20 0 -11 -4 -20 -10
-20 -5 0 -10 -9 -10 -20 0 -11 -4 -20 -10 -20 -5 0 -10 -9 -10 -20 0 -11 -4
-20 -10 -20 -5 0 -10 -9 -10 -20 0 -11 -4 -20 -10 -20 -5 0 -10 -9 -10 -20 0
-11 -4 -20 -10 -20 -5 0 -10 -9 -10 -20 0 -11 -4 -20 -10 -20 -5 0 -10 -9 -10
-20 0 -11 -4 -20 -10 -20 -5 0 -10 -9 -10 -20 0 -11 -4 -20 -10 -20 -5 0 -10
-13 -10 -30 0 -16 -4 -30 -10 -30 -5 0 -10 -13 -10 -30 0 -16 -4 -30 -10 -30
-5 0 -10 -9 -10 -20 0 -11 -4 -20 -10 -20 -5 0 -10 -13 -10 -30 0 -16 -4 -30
-10 -30 -5 0 -10 -18 -10 -40 0 -22 -4 -40 -10 -40 -5 0 -10 -13 -10 -30 0
-16 -4 -30 -10 -30 -5 0 -10 -22 -10 -50 0 -27 -4 -50 -10 -50 -6 0 -10 -30
-10 -70 0 -40 -4 -70 -10 -70 -6 0 -10 -28 -10 -65 0 -37 -4 -65 -10 -65 -6 0
-10 -30 -10 -70 0 -40 -4 -70 -10 -70 -5 0 -10 -14 -10 -31 0 -30 2 -31 33
-25 17 3 92 10 166 15 234 17 398 37 471 57 30 9 118 36 195 61 77 25 156 50
175 55 19 5 189 11 377 13 326 4 423 12 423 35 0 6 9 10 20 10 11 0 20 5 20
10 0 6 14 10 30 10 17 0 30 5 30 10 0 6 9 10 20 10 11 0 20 5 20 10 0 6 14 10
30 10 17 0 30 5 30 10 0 6 23 10 50 10 28 0 50 5 50 10 0 6 18 10 40 10 22 0
40 5 40 10 0 6 18 10 40 10 22 0 40 5 40 10 0 6 14 10 30 10 17 0 30 5 30 10
0 6 14 10 30 10 17 0 30 5 30 10 0 6 8 10 18 10 10 0 24 9 32 20 8 11 21 20
30 20 9 0 22 9 30 20 8 11 20 20 27 20 16 0 183 165 183 181 0 6 14 24 30 39
17 15 30 34 30 42 0 7 9 20 20 28 11 8 20 20 20 27 0 16 145 163 161 163 6 0
24 14 39 30 15 17 35 30 44 30 9 0 16 5 16 10 0 6 9 10 20 10 11 0 20 5 20 10
0 6 9 10 20 10 11 0 20 5 20 10 0 6 11 10 25 10 14 0 25 5 25 10 0 6 14 10 30
10 17 0 30 5 30 10 0 6 23 10 50 10 28 0 50 5 50 10 0 6 23 10 50 10 28 0 50
5 50 10 0 6 23 10 50 10 28 0 50 5 50 10 0 6 14 10 30 10 17 0 30 5 30 10 0 6
14 10 30 10 17 0 30 5 30 10 0 6 9 10 20 10 11 0 20 5 20 10 0 6 7 10 15 10
20 0 65 45 65 65 0 8 5 15 10 15 6 0 10 14 10 30 0 17 5 30 10 30 6 0 10 14
10 30 0 17 5 30 10 30 6 0 10 9 10 20 0 13 7 20 20 20 11 0 20 5 20 10 0 6 9
10 20 10 11 0 20 5 20 10 0 6 14 10 30 10 17 0 30 5 30 10 0 6 18 10 40 10 22
0 40 5 40 10 0 6 14 10 30 10 17 0 30 5 30 10 0 6 18 10 40 10 22 0 40 5 40
10 0 6 11 10 24 10 13 0 37 7 52 15 93 48 124 -12 83 -160 -18 -66 -19 -107
-18 -767 0 -483 -3 -698 -10 -698 -7 0 -11 -55 -11 -160 0 -100 -4 -160 -10
-160 -6 0 -10 -40 -10 -100 0 -60 -4 -100 -10 -100 -6 0 -10 -30 -10 -70 0
-40 -4 -70 -10 -70 -5 0 -10 -18 -10 -40 0 -22 -4 -40 -10 -40 -5 0 -10 -13
-10 -30 0 -16 -4 -30 -10 -30 -5 0 -10 -13 -10 -30 0 -16 -4 -30 -10 -30 -5 0
-10 -9 -10 -20 0 -11 -4 -20 -10 -20 -5 0 -10 -21 -10 -46 0 -47 16 -74 44
-74 9 0 16 -4 16 -10 0 -5 16 -10 36 -10 57 0 64 -14 64 -134 0 -64 -4 -106
-10 -106 -5 0 -10 -18 -10 -40 0 -22 -4 -40 -10 -40 -5 0 -10 -9 -10 -20 0
-11 -4 -20 -10 -20 -5 0 -10 -8 -10 -18 0 -10 -9 -24 -20 -32 -12 -8 -20 -26
-20 -42 0 -15 -4 -28 -10 -28 -6 0 -10 -50 -10 -130 0 -80 -4 -130 -10 -130
-6 0 -10 -33 -10 -80 0 -47 4 -80 10 -80 7 0 10 -143 10 -410 0 -267 -3 -410
-10 -410 -5 0 -10 -18 -10 -40 0 -22 -4 -40 -10 -40 -5 0 -10 -7 -10 -16 0
-25 -26 -44 -60 -44 -34 0 -60 -19 -60 -44 0 -9 -4 -16 -10 -16 -6 0 -10 -50
-10 -130 0 -80 4 -130 10 -130 6 0 10 -18 10 -40 0 -22 5 -40 10 -40 6 0 10
-13 10 -30 0 -16 5 -30 10 -30 6 0 10 -9 10 -20 0 -11 5 -20 10 -20 6 0 10 -7
10 -16 0 -8 18 -33 40 -54 22 -21 40 -43 40 -49 0 -6 5 -11 10 -11 6 0 10 -22
10 -50 0 -27 5 -50 10 -50 6 0 10 -18 10 -40 0 -22 -4 -40 -10 -40 -6 0 -10
-50 -10 -130 0 -80 -4 -130 -10 -130 -6 0 -10 -32 -10 -76 0 -98 -6 -104 -104
-104 -44 0 -76 -4 -76 -10 0 -6 -30 -10 -70 -10 -40 0 -70 -4 -70 -10 0 -6
-33 -10 -80 -10 -47 0 -80 -4 -80 -10 0 -6 -30 -10 -70 -10 -40 0 -70 -4 -70
-10 0 -6 -30 -10 -70 -10 -40 0 -70 -4 -70 -10 0 -6 -33 -10 -80 -10 -47 0
-80 -4 -80 -10 0 -6 -28 -10 -65 -10 -37 0 -65 -4 -65 -10 0 -6 -30 -10 -70
-10 -40 0 -70 -4 -70 -10 0 -6 -33 -10 -80 -10 -47 0 -80 -4 -80 -10 0 -6 -30
-10 -70 -10 -40 0 -70 -4 -70 -10 0 -6 -33 -10 -80 -10 -47 0 -80 -4 -80 -10
0 -6 -30 -10 -70 -10 -40 0 -70 -4 -70 -10 0 -6 -33 -10 -80 -10 -47 0 -80 -4
-80 -10 0 -6 -30 -10 -70 -10 -40 0 -70 -4 -70 -10 0 -6 -30 -10 -70 -10 -40
0 -70 -4 -70 -10 0 -5 -13 -10 -30 -10 -21 0 -30 -5 -30 -16 0 -20 24 -44 44
-44 9 0 16 -4 16 -10 0 -5 23 -10 50 -10 28 0 50 -4 50 -10 0 -6 43 -10 110
-10 67 0 110 -4 110 -10 0 -6 63 -10 170 -10 107 0 170 -4 170 -10 0 -6 83
-10 230 -10 147 0 230 -4 230 -10 0 -6 102 -10 285 -10 183 0 285 -4 285 -10
0 -6 113 -10 320 -10 207 0 320 -4 320 -10 0 -7 147 -10 420 -10 273 0 420 -3
420 -10 0 -7 247 -10 720 -10 473 0 720 3 720 10 0 6 25 10 55 10 50 0 59 3
90 35 27 26 35 43 35 70 0 19 -4 35 -10 35 -6 0 -10 37 -10 90 0 53 -4 90 -10
90 -6 0 -10 33 -10 80 0 47 -4 80 -10 80 -6 0 -10 30 -10 70 0 40 -4 70 -10
70 -5 0 -10 23 -10 50 0 28 -4 50 -10 50 -5 0 -10 23 -10 50 0 28 -4 50 -10
50 -5 0 -10 18 -10 40 0 22 -4 40 -10 40 -6 0 -10 30 -10 70 0 40 -4 70 -10
70 -6 0 -10 28 -10 65 0 37 4 65 10 65 6 0 10 33 10 80 0 47 4 80 10 80 6 0
10 27 10 60 0 33 4 60 10 60 6 0 10 18 10 40 0 22 5 40 10 40 6 0 10 23 10 50
0 28 5 50 10 50 6 0 10 40 10 100 0 60 -4 100 -10 100 -5 0 -10 9 -10 20 0 16
-7 20 -30 20 -16 0 -30 5 -30 10 0 6 -9 10 -20 10 -17 0 -20 7 -20 50 0 28 -4
50 -10 50 -6 0 -10 27 -10 60 0 33 4 60 10 60 6 0 10 37 10 90 0 53 4 90 10
90 6 0 10 23 10 50 0 28 5 50 10 50 6 0 10 30 10 70 0 40 4 70 10 70 6 0 10
33 10 80 0 47 4 80 10 80 6 0 10 30 10 70 0 40 -4 70 -10 70 -5 0 -10 16 -10
36 0 27 -7 43 -30 64 -23 21 -30 37 -30 64 0 20 -4 36 -10 36 -6 0 -10 33 -10
80 0 47 -4 80 -10 80 -7 0 -10 203 -10 590 0 387 3 590 10 590 7 0 10 155 10
445 0 290 3 445 10 445 7 0 10 143 10 410 0 226 2 410 5 410 8 0 75 -68 75
-76 0 -11 235 -238 289 -280 28 -21 51 -41 51 -45 0 -10 124 -100 211 -153 73
-44 119 -58 119 -36 0 6 9 10 20 10 11 0 20 5 20 10 0 6 23 10 50 10 28 0 50
-4 50 -10 0 -5 7 -10 15 -10 17 0 205 -184 205 -201 0 -6 14 -24 30 -39 17
-15 30 -33 30 -40 0 -7 14 -25 30 -40 17 -15 30 -33 30 -40 0 -7 14 -25 30
-40 17 -15 30 -34 30 -42 0 -7 9 -20 20 -28 11 -8 20 -20 20 -27 0 -11 44 -63
121 -142 32 -33 155 -102 232 -130 61 -22 171 -29 182 -11 3 5 37 10 75 10 45
0 70 4 72 12 7 21 38 -17 38 -46 0 -14 5 -26 10 -26 6 0 10 -13 10 -30 0 -16
5 -30 10 -30 6 0 10 -9 10 -20 0 -11 5 -20 10 -20 6 0 10 -13 10 -30 0 -16 5
-30 10 -30 6 0 10 -13 10 -30 0 -16 5 -30 10 -30 6 0 10 -13 10 -30 0 -16 5
-30 10 -30 6 0 10 -13 10 -30 0 -16 5 -30 10 -30 6 0 10 -9 10 -20 0 -11 5
-20 10 -20 6 0 10 -13 10 -30 0 -16 5 -30 10 -30 6 0 10 -9 10 -20 0 -11 5
-20 10 -20 6 0 10 -13 10 -30 0 -16 5 -30 10 -30 6 0 10 -9 10 -20 0 -11 5
-20 10 -20 6 0 10 -6 10 -13 0 -7 9 -23 20 -35 11 -12 20 -27 20 -34 0 -8 9
-20 20 -28 11 -8 20 -21 20 -28 0 -19 66 -78 115 -104 52 -27 159 -99 163
-110 2 -4 12 -8 23 -8 10 0 19 -4 19 -10 0 -5 8 -10 18 -10 10 0 24 -9 32 -20
8 -11 22 -20 32 -20 10 0 18 -4 18 -10 0 -5 9 -10 20 -10 11 0 20 -4 20 -10 0
-5 8 -10 18 -10 10 0 24 -9 32 -20 8 -11 20 -20 28 -20 7 0 18 -5 25 -10 26
-22 84 -60 117 -76 19 -10 51 -28 70 -41 19 -12 82 -42 140 -66 58 -25 165
-74 239 -111 181 -90 236 -88 260 8 14 56 14 116 1 116 -6 0 -10 27 -10 60 0
33 -4 60 -10 60 -5 0 -10 18 -10 40 0 22 -4 40 -10 40 -5 0 -10 23 -10 50 0
28 -4 50 -10 50 -5 0 -10 18 -10 40 0 22 -4 40 -10 40 -5 0 -10 18 -10 40 0
22 -4 40 -10 40 -5 0 -10 18 -10 40 0 22 -4 40 -10 40 -5 0 -10 18 -10 40 0
22 -4 40 -10 40 -5 0 -10 18 -10 40 0 22 -4 40 -10 40 -5 0 -10 18 -10 40 0
22 -4 40 -10 40 -5 0 -10 14 -10 30 0 17 -4 30 -10 30 -5 0 -10 18 -10 40 0
22 -4 40 -10 40 -5 0 -10 18 -10 40 0 22 -4 40 -10 40 -5 0 -10 14 -10 30 0
17 -4 30 -10 30 -5 0 -10 14 -10 30 0 17 -4 30 -10 30 -5 0 -10 18 -10 39 0
22 -4 43 -10 46 -5 3 -10 17 -10 31 0 13 -4 24 -10 24 -5 0 -10 14 -10 30 0
17 -4 30 -10 30 -5 0 -10 14 -10 30 0 17 -4 30 -10 30 -5 0 -10 14 -10 30 0
17 -4 30 -10 30 -5 0 -10 11 -10 25 0 14 -4 25 -10 25 -5 0 -10 14 -10 30 0
17 -4 30 -8 30 -13 0 -57 112 -53 138 1 12 -2 22 -8 22 -6 0 -11 9 -11 20 0
11 -4 20 -10 20 -5 0 -10 14 -10 30 0 17 -4 30 -10 30 -5 0 -10 9 -10 20 0 11
-4 20 -10 20 -5 0 -10 9 -10 20 0 11 -4 20 -10 20 -5 0 -10 9 -10 20 0 11 -4
20 -10 20 -5 0 -10 9 -10 20 0 11 -4 20 -10 20 -5 0 -10 9 -10 20 0 11 -4 20
-10 20 -5 0 -10 9 -10 20 0 11 -4 20 -10 20 -5 0 -10 8 -10 18 0 10 -9 24 -20
32 -11 8 -20 22 -20 32 0 10 -4 18 -10 18 -5 0 -10 8 -10 18 0 10 -9 24 -20
32 -11 8 -20 21 -20 28 0 8 -13 27 -30 42 -16 15 -30 34 -30 42 0 7 -9 20 -20
28 -11 8 -20 21 -20 28 0 8 -13 27 -30 42 -16 15 -30 33 -30 40 0 6 -18 29
-40 50 -22 21 -40 44 -40 50 0 6 -18 29 -40 50 -22 21 -40 44 -40 50 0 6 -27
38 -60 70 -33 32 -60 64 -60 70 0 6 -27 38 -60 70 -33 32 -60 64 -60 70 0 6
-22 33 -50 60 -27 27 -50 52 -50 55 0 4 -54 63 -120 132 -100 105 -142 140
-253 213 -72 47 -167 114 -209 148 -42 33 -121 84 -175 111 -54 28 -143 77
-198 110 -150 90 -301 171 -317 171 -34 0 -53 65 -25 88 43 35 397 47 497 17
30 -9 102 -25 160 -35 207 -38 496 -133 699 -230 l123 -60 109 0 c66 0 109 -4
109 -10 0 -5 14 -10 30 -10 17 0 30 -4 30 -10 0 -5 9 -10 20 -10 11 0 20 -4
20 -10 0 -5 8 -10 18 -10 10 0 24 -9 32 -20 8 -11 20 -20 28 -20 7 0 35 -22
62 -50 27 -27 55 -50 62 -50 8 0 20 -9 28 -20 8 -11 20 -20 27 -20 12 0 52
-19 63 -30 12 -12 51 -30 65 -30 8 0 15 -4 15 -10 0 -5 9 -10 20 -10 11 0 20
-4 20 -10 0 -5 14 -10 30 -10 17 0 30 -4 30 -10 0 -5 14 -10 30 -10 17 0 30
-4 30 -9 0 -5 15 -11 33 -14 17 -4 57 -11 87 -16 30 -6 98 -15 150 -21 52 -6
113 -15 135 -20 22 -5 73 -10 113 -10 41 0 120 -10 175 -21 93 -19 122 -21
338 -15 194 5 259 10 361 31 147 29 341 48 412 41 206 -20 201 -21 263 9 32
16 70 41 85 57 14 15 31 28 38 28 7 0 25 14 40 30 15 17 33 30 40 30 7 0 25
14 40 30 15 17 35 30 44 30 24 0 20 23 -23 148 -33 97 -47 123 -102 190 -35
42 -66 79 -69 82 -3 3 -21 25 -40 50 -46 59 -77 90 -90 90 -6 0 -55 45 -110
100 -55 55 -104 100 -110 100 -6 0 -42 32 -80 70 -38 39 -74 70 -80 70 -6 0
-42 32 -80 70 -38 39 -74 70 -80 70 -6 0 -38 27 -70 60 -32 33 -64 60 -70 60
-6 0 -33 23 -60 50 -27 28 -54 50 -60 50 -6 0 -33 23 -60 50 -27 28 -54 50
-60 50 -7 0 -25 14 -40 30 -15 17 -33 30 -40 30 -7 0 -25 14 -40 30 -15 17
-34 30 -42 30 -7 0 -20 9 -28 20 -8 11 -22 20 -32 20 -10 0 -18 5 -18 10 0 6
-9 10 -20 10 -11 0 -20 5 -20 10 0 6 -9 10 -20 10 -11 0 -20 5 -20 10 0 6 -9
10 -20 10 -11 0 -20 5 -20 10 0 6 -9 10 -20 10 -11 0 -20 5 -20 10 0 6 -9 10
-20 10 -11 0 -20 4 -20 10 0 5 -22 12 -50 16 -27 4 -50 10 -50 15 0 5 -7 9
-15 9 -8 0 -15 5 -15 10 0 6 -9 10 -20 10 -11 0 -20 5 -20 10 0 6 -13 10 -30
10 -16 0 -30 5 -30 10 0 6 -13 10 -30 10 -16 0 -30 5 -30 10 0 6 -9 10 -20 10
-11 0 -20 5 -20 10 0 6 -13 10 -30 10 -16 0 -30 5 -30 10 0 6 -13 10 -30 10
-16 0 -30 5 -30 10 0 6 -13 10 -30 10 -16 0 -30 5 -30 10 0 6 -13 10 -30 10
-16 0 -30 5 -30 10 0 6 -9 10 -20 10 -11 0 -20 5 -20 10 0 6 -13 10 -30 10
-16 0 -30 5 -30 10 0 6 -13 10 -30 10 -16 0 -30 5 -30 10 0 6 -13 10 -30 10
-16 0 -30 5 -30 10 0 6 -13 10 -30 10 -16 0 -30 5 -30 10 0 6 -13 10 -30 10
-16 0 -30 5 -30 10 0 6 -13 10 -30 10 -16 0 -30 5 -30 10 0 6 -13 10 -30 10
-16 0 -30 5 -30 10 0 6 -13 10 -30 10 -16 0 -30 5 -30 10 0 6 -9 10 -20 10
-11 0 -20 5 -20 10 0 6 -13 10 -30 10 -16 0 -30 5 -30 10 0 6 -13 10 -30 10
-16 0 -30 5 -30 10 0 6 -9 10 -20 10 -11 0 -20 5 -20 10 0 6 -13 10 -30 10
-16 0 -30 5 -30 10 0 6 -9 10 -20 10 -11 0 -20 5 -20 10 0 6 -9 10 -20 10 -11
0 -20 5 -20 10 0 6 -7 10 -15 10 -14 0 -85 62 -85 75 0 3 9 5 20 5 11 0 20 5
20 10 0 6 9 10 20 10 11 0 20 5 20 10 0 6 9 10 20 10 11 0 20 5 20 10 0 6 9
10 20 10 11 0 20 5 20 10 0 6 18 10 40 10 22 0 40 5 40 10 0 6 14 10 30 10 17
0 30 5 30 10 0 6 23 10 50 10 28 0 50 5 50 10 0 6 23 10 50 10 28 0 50 5 50
10 0 6 23 10 50 10 28 0 50 5 50 10 0 6 23 10 50 10 28 0 50 5 50 10 0 6 27
10 60 10 33 0 60 4 60 10 0 6 23 10 50 10 28 0 50 5 50 10 0 6 14 10 30 10 17
0 30 5 30 10 0 6 18 10 40 10 22 0 40 5 40 10 0 6 9 10 20 10 11 0 20 5 20 10
0 6 9 10 20 10 11 0 20 5 20 10 0 6 7 10 15 10 20 0 125 105 125 125 0 8 5 15
10 15 6 0 10 14 10 30 0 17 5 30 10 30 6 0 10 18 10 40 0 22 -4 40 -10 40 -6
0 -10 30 -10 70 0 40 4 70 10 70 6 0 10 7 10 15 0 17 104 125 120 125 5 0 10
5 10 10 0 6 9 10 20 10 11 0 20 5 20 10 0 6 14 10 30 10 17 0 30 5 30 10 0 6
18 10 40 10 22 0 40 5 40 10 0 6 23 10 50 10 28 0 50 5 50 10 0 6 30 10 70 10
40 0 70 4 70 10 0 6 33 10 80 10 47 0 80 4 80 10 0 6 23 10 50 10 28 0 50 5
50 10 0 6 18 10 40 10 22 0 40 5 40 10 0 6 14 10 30 10 17 0 30 5 30 10 0 6 9
10 20 10 11 0 20 5 20 10 0 6 9 10 20 10 11 0 20 5 20 10 0 6 8 10 18 10 10 0
24 9 32 20 8 11 20 20 28 20 18 0 42 25 42 44 0 9 5 16 10 16 6 0 10 9 10 20
0 11 5 20 10 20 6 0 10 23 10 50 0 28 5 50 10 50 6 0 10 37 10 90 0 53 -4 90
-10 90 -5 0 -10 13 -10 28 0 16 -8 34 -20 42 -16 11 -20 26 -20 67 0 51 2 56
55 108 30 30 60 55 66 55 6 0 28 18 49 40 21 22 44 40 50 40 6 0 29 18 50 40
21 22 44 40 50 40 7 0 25 14 40 30 15 17 33 30 40 30 7 0 25 14 40 30 15 17
33 30 40 30 7 0 25 14 40 30 15 17 33 30 39 30 7 0 27 16 47 35 l35 35 -66 65
c-35 36 -70 65 -78 65 -7 0 -19 9 -27 20 -8 11 -22 20 -32 20 -10 0 -18 5 -18
10 0 6 -13 10 -30 10 -16 0 -30 5 -30 10 0 6 -18 10 -40 10 -22 0 -40 5 -40
10 0 6 -22 10 -50 10 -27 0 -50 5 -50 10 0 6 -27 10 -60 10 -33 0 -60 4 -60
10 0 6 -30 10 -70 10 -40 0 -70 4 -70 10 0 6 -40 10 -100 10 -60 0 -100 4
-100 10 0 6 -50 10 -130 10 -80 0 -130 4 -130 10 0 6 -128 10 -365 10 -237 0
-365 -4 -365 -10 0 -6 -40 -10 -100 -10 -60 0 -100 -4 -100 -10 0 -6 -27 -10
-60 -10 -33 0 -60 -4 -60 -10 0 -5 -22 -10 -50 -10 -27 0 -50 -4 -50 -10 0 -5
-18 -10 -40 -10 -22 0 -40 -4 -40 -10 0 -5 -18 -10 -40 -10 -22 0 -40 -4 -40
-10 0 -5 -13 -10 -30 -10 -16 0 -30 -4 -30 -10 0 -5 -13 -10 -30 -10 -16 0
-30 -4 -30 -10 0 -5 -13 -10 -30 -10 -16 0 -30 -4 -30 -10 0 -5 -13 -10 -30
-10 -16 0 -30 -4 -30 -10 0 -5 -9 -10 -20 -10 -11 0 -20 -4 -20 -10 0 -5 -13
-10 -30 -10 -16 0 -30 -4 -30 -10 0 -5 -9 -10 -20 -10 -11 0 -20 -4 -20 -10 0
-5 -13 -10 -30 -10 -16 0 -30 -4 -30 -10 0 -5 -9 -10 -20 -10 -11 0 -20 -4
-20 -10 0 -5 -9 -10 -20 -10 -11 0 -20 -4 -20 -10 0 -5 -13 -10 -30 -10 -16 0
-30 -4 -30 -10 0 -5 -9 -10 -20 -10 -11 0 -20 -4 -20 -10 0 -5 -9 -10 -20 -10
-11 0 -20 -4 -20 -10 0 -5 -9 -10 -20 -10 -11 0 -20 -4 -20 -10 0 -5 -9 -10
-20 -10 -11 0 -20 -4 -20 -10 0 -5 -9 -10 -20 -10 -11 0 -20 -4 -20 -10 0 -5
-9 -10 -20 -10 -11 0 -20 -4 -20 -10 0 -5 -9 -10 -20 -10 -11 0 -20 -4 -20
-10 0 -5 -9 -10 -20 -10 -11 0 -20 -4 -20 -10 0 -5 -9 -10 -20 -10 -11 0 -20
-4 -20 -10 0 -5 -9 -10 -20 -10 -11 0 -20 -4 -20 -10 0 -5 -9 -10 -20 -10 -11
0 -20 -4 -20 -10 0 -5 -8 -10 -18 -10 -10 0 -24 -9 -32 -20 -8 -11 -22 -20
-32 -20 -10 0 -18 -4 -18 -10 0 -5 -9 -10 -20 -10 -11 0 -20 -4 -20 -10 0 -5
-9 -10 -20 -10 -11 0 -20 -4 -20 -10 0 -5 -8 -10 -18 -10 -10 0 -24 -9 -32
-20 -8 -11 -22 -20 -32 -20 -10 0 -18 -4 -18 -10 0 -5 -9 -10 -20 -10 -11 0
-20 -4 -20 -10 0 -5 -9 -10 -20 -10 -11 0 -20 -4 -20 -10 0 -5 -8 -10 -18 -10
-10 0 -24 -9 -32 -20 -8 -11 -22 -20 -32 -20 -10 0 -18 -4 -18 -10 0 -5 -9
-10 -20 -10 -11 0 -20 -4 -20 -10 0 -5 -9 -10 -20 -10 -11 0 -20 -4 -20 -10 0
-5 -8 -10 -18 -10 -10 0 -24 -9 -32 -20 -8 -11 -22 -20 -32 -20 -10 0 -18 -4
-18 -10 0 -5 -9 -10 -20 -10 -11 0 -20 -4 -20 -10 0 -5 -8 -10 -18 -10 -10 0
-24 -9 -32 -20 -8 -11 -22 -20 -32 -20 -10 0 -18 -4 -18 -10 0 -5 -8 -10 -18
-10 -10 0 -24 -9 -32 -20 -8 -11 -21 -20 -30 -20 -9 0 -22 -9 -30 -20 -8 -11
-21 -20 -30 -20 -9 0 -22 -9 -30 -20 -8 -11 -21 -20 -30 -20 -9 0 -22 -9 -30
-20 -8 -11 -21 -20 -30 -20 -9 0 -22 -9 -30 -20 -8 -12 -26 -20 -42 -20 -15 0
-28 -4 -28 -10 0 -5 -18 -10 -40 -10 -22 0 -40 -4 -40 -10 0 -5 -18 -10 -40
-10 -22 0 -40 -4 -40 -10 0 -5 -18 -10 -40 -10 -22 0 -40 -4 -40 -10 0 -5 -22
-10 -50 -10 -43 0 -50 3 -50 20 0 11 5 20 10 20 6 0 10 8 10 18 0 10 9 24 20
32 11 8 20 20 20 27 0 16 125 143 141 143 13 0 81 71 147 155 26 32 67 80 91
105 104 106 154 178 195 279 14 35 52 98 83 139 148 192 163 215 163 254 0 52
45 186 78 230 15 20 48 65 73 100 67 90 219 413 219 463 0 22 1 63 2 90 6 148
1 336 -11 385 -20 79 -46 127 -161 290 -112 157 -134 200 -144 272 -4 26 -11
50 -17 53 -5 4 -9 21 -9 40 0 18 -13 69 -29 112 -46 126 -118 308 -130 331 -6
11 -11 30 -11 40 0 24 -54 72 -78 71 -9 -1 -66 -16 -127 -35z m16 -438 c9 -6
31 -28 49 -49 28 -32 36 -55 57 -155 14 -67 34 -132 47 -152 31 -51 44 -82 51
-132 8 -51 -11 -191 -25 -196 -6 -2 -10 -48 -10 -103 0 -59 -4 -99 -10 -99 -6
0 -10 -37 -10 -90 0 -53 -4 -90 -10 -90 -6 0 -10 -30 -10 -70 0 -40 -4 -70
-10 -70 -6 0 -10 -30 -10 -70 0 -40 -4 -70 -10 -70 -5 0 -10 -11 -10 -25 0
-14 -4 -25 -10 -25 -5 0 -10 -9 -10 -20 0 -11 -4 -20 -10 -20 -5 0 -10 -7 -10
-15 0 -17 -184 -205 -200 -205 -16 0 -140 -128 -140 -145 0 -8 -4 -15 -10 -15
-5 0 -10 -9 -10 -20 0 -11 -4 -20 -10 -20 -5 0 -10 -9 -10 -20 0 -11 -4 -20
-10 -20 -5 0 -10 -13 -10 -30 0 -16 -4 -30 -10 -30 -6 0 -10 -37 -10 -90 0
-53 -4 -90 -10 -90 -5 0 -10 -18 -10 -40 0 -22 -4 -40 -10 -40 -5 0 -10 -9
-10 -20 0 -11 -4 -20 -10 -20 -5 0 -10 -9 -10 -20 0 -11 -4 -20 -10 -20 -5 0
-10 -9 -10 -20 0 -11 -4 -20 -10 -20 -5 0 -10 -9 -10 -20 0 -11 -4 -20 -10
-20 -5 0 -10 -8 -10 -18 0 -10 -9 -24 -20 -32 -11 -8 -20 -21 -20 -30 0 -9 -9
-22 -20 -30 -11 -8 -20 -21 -20 -28 0 -8 -13 -27 -30 -42 -16 -15 -30 -33 -30
-40 0 -6 -18 -29 -40 -50 -22 -21 -40 -44 -40 -50 0 -6 -22 -33 -50 -60 -27
-27 -50 -54 -50 -60 0 -6 -27 -38 -60 -70 -33 -32 -60 -66 -60 -74 0 -9 -25
-40 -55 -71 -30 -30 -55 -59 -55 -65 0 -6 -22 -33 -50 -60 -27 -27 -50 -54
-50 -60 0 -7 -13 -25 -30 -40 -16 -15 -30 -33 -30 -40 0 -7 -13 -25 -30 -40
-16 -15 -30 -35 -30 -44 0 -9 -4 -16 -10 -16 -5 0 -10 -8 -10 -18 0 -10 -9
-24 -20 -32 -12 -8 -20 -26 -20 -42 0 -15 -4 -28 -10 -28 -5 0 -10 -9 -10 -20
0 -11 -4 -20 -10 -20 -5 0 -10 -13 -10 -30 0 -16 -4 -30 -10 -30 -5 0 -10 -9
-10 -20 0 -11 -4 -20 -10 -20 -5 0 -10 -13 -10 -30 0 -16 -4 -30 -10 -30 -5 0
-10 -13 -10 -30 0 -16 -4 -30 -10 -30 -5 0 -10 -13 -10 -30 0 -16 -4 -30 -10
-30 -5 0 -10 -13 -10 -30 0 -16 -4 -30 -10 -30 -5 0 -10 -13 -10 -30 0 -16 -4
-30 -10 -30 -5 0 -10 -13 -10 -30 0 -16 -4 -30 -10 -30 -5 0 -10 -9 -10 -20 0
-11 -4 -20 -10 -20 -5 0 -10 -13 -10 -30 0 -16 -4 -30 -10 -30 -5 0 -10 -9
-10 -20 0 -11 -4 -20 -10 -20 -5 0 -10 -9 -10 -20 0 -11 -4 -20 -10 -20 -5 0
-10 -13 -10 -30 0 -16 -4 -30 -10 -30 -5 0 -10 -8 -10 -18 0 -10 -9 -24 -20
-32 -11 -8 -20 -21 -20 -30 0 -9 -9 -22 -20 -30 -11 -8 -20 -20 -20 -27 0 -12
-143 -163 -155 -163 -3 0 -5 23 -5 50 0 28 -4 50 -10 50 -6 0 -10 27 -10 60 0
33 -4 60 -10 60 -6 0 -10 27 -10 60 0 33 -4 60 -10 60 -6 0 -10 27 -10 60 0
33 -4 60 -10 60 -6 0 -10 27 -10 60 0 33 -4 60 -10 60 -6 0 -10 27 -10 60 0
33 -4 60 -10 60 -6 0 -10 27 -10 60 0 33 -4 60 -10 60 -6 0 -10 27 -10 60 0
33 -4 60 -10 60 -6 0 -10 27 -10 60 0 33 -4 60 -10 60 -6 0 -10 27 -10 60 0
33 -4 60 -10 60 -6 0 -10 30 -10 70 0 40 -4 70 -10 70 -6 0 -10 27 -10 60 0
33 -4 60 -10 60 -6 0 -10 33 -10 80 0 47 4 80 10 80 6 0 10 14 10 30 0 17 5
30 10 30 6 0 10 9 10 20 0 11 5 20 10 20 6 0 10 14 10 30 0 17 5 30 10 30 6 0
10 9 10 20 0 11 5 20 10 20 6 0 10 9 10 20 0 11 5 20 10 20 6 0 10 9 10 20 0
11 5 20 10 20 6 0 10 9 10 20 0 11 5 20 10 20 6 0 10 9 10 20 0 11 5 20 10 20
6 0 10 9 10 20 0 11 5 20 10 20 6 0 10 9 10 20 0 11 5 20 10 20 6 0 10 9 10
20 0 11 5 20 10 20 6 0 10 9 10 20 0 11 5 20 10 20 6 0 10 9 10 20 0 11 5 20
10 20 6 0 10 8 10 18 0 10 9 24 20 32 11 8 20 22 20 32 0 10 5 18 10 18 6 0
10 9 10 20 0 11 5 20 10 20 6 0 10 9 10 20 0 11 5 20 10 20 6 0 10 8 10 18 0
10 9 24 20 32 11 8 20 22 20 32 0 10 5 18 10 18 6 0 10 9 10 20 0 11 5 20 10
20 6 0 10 8 10 18 0 10 9 24 20 32 11 8 20 22 20 32 0 10 5 18 10 18 6 0 10 8
10 18 0 10 9 24 20 32 11 8 20 22 20 32 0 10 5 18 10 18 6 0 10 8 10 18 0 10
9 24 20 32 11 8 20 21 20 30 0 9 9 22 20 30 11 8 20 22 20 32 0 10 5 18 10 18
6 0 10 8 10 18 0 10 9 24 20 32 11 8 20 21 20 30 0 9 9 22 20 30 11 8 20 21
20 30 0 9 9 22 20 30 11 8 20 21 20 30 0 9 9 22 20 30 11 8 20 21 20 30 0 9 9
22 20 30 11 8 20 18 20 23 0 5 14 22 30 37 17 15 30 33 30 40 0 7 14 25 30 40
17 15 30 33 30 40 0 6 23 33 50 60 28 27 50 54 50 60 0 6 15 26 33 45 64 69
77 84 77 95 0 15 347 360 363 360 7 0 18 8 25 18 20 27 98 170 136 247 34 69
102 156 241 308 72 79 83 83 126 53z m-5591 -1766 c0 -6 53 -10 140 -10 87 0
140 -4 140 -10 0 -6 37 -10 90 -10 53 0 90 -4 90 -10 0 -6 30 -10 70 -10 40 0
70 -4 70 -10 0 -5 23 -10 50 -10 28 0 50 -4 50 -10 0 -5 23 -10 50 -10 28 0
50 -4 50 -10 0 -5 18 -10 40 -10 22 0 40 -4 40 -10 0 -5 16 -10 35 -10 19 0
35 -4 35 -10 0 -5 14 -10 30 -10 17 0 30 -4 30 -10 0 -5 18 -10 40 -10 22 0
40 -4 40 -10 0 -5 9 -10 20 -10 11 0 20 -4 20 -10 0 -5 14 -10 30 -10 17 0 30
-4 30 -10 0 -5 9 -10 20 -10 11 0 20 -4 20 -10 0 -5 9 -10 20 -10 11 0 20 -4
20 -10 0 -5 14 -10 30 -10 17 0 30 -4 30 -10 0 -5 9 -10 20 -10 11 0 20 -4 20
-10 0 -5 9 -10 20 -10 11 0 20 -4 20 -10 0 -5 9 -10 20 -10 11 0 20 -4 20 -10
0 -5 9 -10 20 -10 11 0 20 -4 20 -10 0 -5 9 -10 20 -10 11 0 20 -4 20 -10 0
-5 9 -10 20 -10 11 0 20 -4 20 -10 0 -5 9 -10 20 -10 11 0 20 -4 20 -10 0 -5
9 -10 20 -10 11 0 20 -4 20 -10 0 -5 9 -10 20 -10 11 0 20 -4 20 -10 0 -5 9
-10 20 -10 11 0 20 -4 20 -10 0 -5 8 -10 18 -10 10 0 24 -9 32 -20 8 -11 22
-20 32 -20 10 0 18 -4 18 -10 0 -5 9 -10 20 -10 11 0 20 -4 20 -10 0 -5 8 -10
18 -10 10 0 24 -9 32 -20 8 -11 21 -20 30 -20 9 0 22 -9 30 -20 8 -11 21 -20
28 -20 8 0 27 -13 42 -30 15 -16 33 -30 40 -30 7 0 25 -13 40 -30 15 -16 34
-30 42 -30 7 0 20 -9 28 -20 8 -11 21 -20 28 -20 8 0 27 -13 42 -30 15 -16 33
-30 40 -30 7 0 25 -13 40 -30 15 -16 33 -30 40 -30 7 0 25 -13 40 -30 15 -16
33 -30 40 -30 7 0 25 -13 40 -30 15 -16 33 -30 39 -30 15 0 141 -126 141 -141
0 -6 14 -24 30 -39 17 -15 30 -34 30 -42 0 -7 9 -20 20 -28 11 -8 20 -21 20
-30 0 -9 9 -22 20 -30 11 -8 20 -22 20 -32 0 -10 5 -18 10 -18 6 0 10 -8 10
-18 0 -10 9 -24 20 -32 11 -8 20 -22 20 -32 0 -10 5 -18 10 -18 6 0 10 -9 10
-20 0 -11 5 -20 10 -20 6 0 10 -9 10 -20 0 -11 5 -20 10 -20 6 0 10 -13 10
-30 0 -16 5 -30 10 -30 6 0 10 -9 10 -20 0 -11 5 -20 10 -20 6 0 10 -13 10
-30 0 -16 5 -30 10 -30 6 0 10 -13 10 -30 0 -16 5 -30 10 -30 6 0 10 -18 10
-40 0 -22 5 -40 10 -40 6 0 10 -27 10 -60 0 -33 4 -60 10 -60 6 0 10 -93 10
-260 0 -167 -4 -260 -10 -260 -6 0 -10 -27 -10 -60 0 -33 -4 -60 -10 -60 -5 0
-10 -18 -10 -40 0 -22 -4 -40 -10 -40 -5 0 -10 -7 -10 -16 0 -28 -27 -44 -74
-44 -25 0 -46 5 -46 10 0 6 -9 10 -20 10 -11 0 -20 5 -20 10 0 6 -9 10 -20 10
-11 0 -20 5 -20 10 0 6 -9 10 -20 10 -11 0 -20 5 -20 10 0 6 -9 10 -20 10 -11
0 -20 5 -20 10 0 6 -13 10 -30 10 -16 0 -30 5 -30 10 0 6 -9 10 -20 10 -11 0
-20 5 -20 10 0 6 -13 10 -30 10 -16 0 -30 5 -30 10 0 6 -9 10 -20 10 -11 0
-20 5 -20 10 0 6 -9 10 -20 10 -11 0 -20 5 -20 10 0 6 -13 10 -30 10 -16 0
-30 5 -30 10 0 6 -9 10 -20 10 -11 0 -20 5 -20 10 0 6 -9 10 -20 10 -11 0 -20
5 -20 10 0 6 -9 10 -20 10 -11 0 -20 5 -20 10 0 6 -7 10 -16 10 -9 0 -29 14
-44 30 -15 17 -33 30 -39 30 -16 0 -121 107 -121 123 0 7 -9 19 -20 27 -11 8
-20 22 -20 32 0 10 -4 18 -10 18 -5 0 -10 9 -10 20 0 11 -4 20 -10 20 -5 0
-10 9 -10 20 0 11 -4 20 -10 20 -5 0 -10 9 -10 20 0 11 -4 20 -10 20 -5 0 -10
18 -10 40 0 22 -4 40 -10 40 -5 0 -10 14 -10 30 0 17 -4 30 -10 30 -5 0 -10
18 -10 40 0 22 -4 40 -10 40 -5 0 -10 14 -10 30 0 17 -4 30 -10 30 -5 0 -10
14 -10 30 0 17 -4 30 -10 30 -5 0 -10 14 -10 30 0 17 -4 30 -10 30 -5 0 -10 9
-10 20 0 11 -4 20 -10 20 -5 0 -10 9 -10 20 0 11 -4 20 -10 20 -5 0 -10 7 -10
15 0 20 -145 165 -165 165 -8 0 -15 5 -15 10 0 6 -9 10 -20 10 -11 0 -20 5
-20 10 0 6 -9 10 -20 10 -11 0 -20 5 -20 10 0 6 -13 10 -30 10 -16 0 -30 5
-30 10 0 6 -40 10 -100 10 -60 0 -100 4 -100 10 0 6 -37 10 -90 10 -53 0 -90
-4 -90 -10 0 -6 -88 -10 -245 -10 -157 0 -245 4 -245 10 0 6 -18 10 -40 10
-22 0 -40 5 -40 10 0 6 -7 10 -15 10 -9 0 -31 16 -50 35 -29 28 -35 42 -35 75
0 35 -6 47 -45 85 -24 25 -51 45 -60 45 -8 0 -15 5 -15 10 0 6 -9 10 -20 10
-11 0 -20 5 -20 10 0 6 -13 10 -30 10 -16 0 -30 5 -30 10 0 6 -13 10 -30 10
-16 0 -30 5 -30 10 0 6 -18 10 -40 10 -22 0 -40 5 -40 10 0 6 -27 10 -60 10
-33 0 -60 4 -60 10 0 6 -33 10 -80 10 -47 0 -80 4 -80 10 0 6 -33 10 -80 10
-47 0 -80 4 -80 10 0 6 -22 10 -50 10 -27 0 -50 5 -50 10 0 6 -13 10 -30 10
-16 0 -30 5 -30 10 0 6 -18 10 -40 10 -22 0 -40 5 -40 10 0 6 -9 10 -20 10
-11 0 -20 5 -20 10 0 6 -9 10 -20 10 -11 0 -20 5 -20 10 0 6 -8 10 -18 10 -10
0 -24 9 -32 20 -8 11 -20 20 -28 20 -18 0 -82 66 -82 85 0 8 -4 15 -10 15 -5
0 -10 9 -10 20 0 11 -4 20 -10 20 -5 0 -10 18 -10 40 0 22 -4 40 -10 40 -5 0
-10 8 -10 18 0 10 -9 24 -20 32 -11 8 -20 20 -20 28 0 17 -45 62 -62 62 -8 0
-20 9 -28 20 -8 11 -22 20 -32 20 -10 0 -18 5 -18 10 0 6 -9 10 -20 10 -11 0
-20 5 -20 10 0 6 -9 10 -20 10 -11 0 -20 5 -20 10 0 6 -13 10 -30 10 -16 0
-30 5 -30 10 0 6 -18 10 -40 10 -22 0 -40 5 -40 10 0 6 -22 10 -50 10 -27 0
-50 5 -50 10 0 6 -33 10 -80 10 -47 0 -80 4 -80 10 0 6 -33 10 -80 10 -47 0
-80 4 -80 10 0 6 -33 10 -80 10 -47 0 -80 4 -80 10 0 6 -9 10 -20 10 -11 0
-20 2 -20 5 0 12 70 75 82 75 8 0 20 9 28 20 8 12 26 20 42 20 15 0 28 5 28
10 0 6 9 10 20 10 11 0 20 5 20 10 0 6 14 10 30 10 17 0 30 5 30 10 0 6 14 10
30 10 17 0 30 5 30 10 0 6 33 10 80 10 47 0 80 4 80 10 0 6 70 10 190 10 120
0 190 4 190 10 0 7 180 10 520 10 340 0 520 -3 520 -10z m8675 -645 c33 -33
48 -85 25 -85 -6 0 -10 -33 -10 -80 0 -47 -4 -80 -10 -80 -5 0 -10 -22 -10
-48 0 -36 -5 -51 -20 -62 -11 -8 -20 -20 -20 -27 0 -17 -86 -103 -103 -103 -7
0 -19 -9 -27 -20 -8 -11 -21 -20 -30 -20 -9 0 -22 -9 -30 -20 -8 -11 -22 -20
-32 -20 -10 0 -18 -4 -18 -10 0 -5 -11 -10 -25 -10 -14 0 -25 -4 -25 -10 0 -5
-9 -10 -20 -10 -11 0 -20 -4 -20 -10 0 -5 -9 -10 -20 -10 -11 0 -20 -4 -20
-10 0 -5 -13 -10 -30 -10 -16 0 -30 -4 -30 -10 0 -5 -13 -10 -30 -10 -16 0
-30 -4 -30 -10 0 -5 -13 -10 -30 -10 -16 0 -30 -4 -30 -10 0 -5 -13 -10 -30
-10 -16 0 -30 -4 -30 -10 0 -5 -13 -10 -30 -10 -16 0 -30 -4 -30 -10 0 -5 -13
-10 -30 -10 -16 0 -30 -4 -30 -10 0 -5 -13 -10 -30 -10 -16 0 -30 -4 -30 -10
0 -5 -13 -10 -30 -10 -16 0 -30 -4 -30 -10 0 -5 -9 -10 -20 -10 -11 0 -20 -4
-20 -10 0 -5 -9 -10 -20 -10 -11 0 -20 -4 -20 -10 0 -5 -13 -10 -28 -10 -16 0
-34 -8 -42 -20 -8 -11 -22 -20 -32 -20 -10 0 -18 -4 -18 -10 0 -5 -7 -10 -15
-10 -9 0 -31 -16 -50 -35 -19 -19 -35 -41 -35 -50 0 -8 -4 -15 -10 -15 -5 0
-10 -13 -10 -30 0 -16 5 -30 10 -30 6 0 10 -9 10 -20 0 -11 -4 -20 -10 -20 -5
0 -10 -13 -10 -28 0 -16 -8 -34 -20 -42 -11 -8 -20 -20 -20 -28 0 -15 -65 -82
-80 -82 -7 0 -29 -18 -50 -40 -21 -22 -44 -40 -50 -40 -7 0 -25 -13 -40 -30
-15 -16 -34 -30 -42 -30 -7 0 -20 -9 -28 -20 -8 -11 -21 -20 -30 -20 -9 0 -22
-9 -30 -20 -8 -11 -21 -20 -30 -20 -9 0 -22 -9 -30 -20 -8 -11 -22 -20 -32
-20 -10 0 -18 -4 -18 -10 0 -5 -8 -10 -18 -10 -10 0 -24 -9 -32 -20 -8 -11
-22 -20 -32 -20 -10 0 -18 -4 -18 -10 0 -5 -8 -10 -18 -10 -10 0 -24 -9 -32
-20 -8 -11 -21 -20 -30 -20 -9 0 -22 -9 -30 -20 -8 -11 -22 -20 -32 -20 -10 0
-18 -4 -18 -10 0 -5 -8 -10 -18 -10 -10 0 -24 -9 -32 -20 -8 -11 -21 -20 -30
-20 -9 0 -22 -9 -30 -20 -8 -11 -22 -20 -32 -20 -10 0 -18 -4 -18 -10 0 -5 -8
-10 -18 -10 -10 0 -24 -9 -32 -20 -8 -11 -21 -20 -30 -20 -9 0 -22 -9 -30 -20
-8 -11 -21 -20 -30 -20 -9 0 -22 -9 -30 -20 -8 -11 -21 -20 -28 -20 -8 0 -27
-13 -42 -30 -15 -16 -33 -30 -39 -30 -7 0 -56 -45 -111 -100 -55 -55 -106
-100 -115 -100 -8 0 -15 -4 -15 -10 0 -5 -22 -10 -50 -10 -27 0 -50 -4 -50
-10 0 -5 -22 -10 -50 -10 -27 0 -50 -4 -50 -10 0 -5 -22 -10 -50 -10 -27 0
-50 -4 -50 -10 0 -5 -22 -10 -50 -10 -27 0 -50 -4 -50 -10 0 -5 -22 -10 -50
-10 -27 0 -50 -4 -50 -10 0 -5 -22 -10 -50 -10 -27 0 -50 -4 -50 -10 0 -5 -22
-10 -50 -10 -27 0 -50 -4 -50 -10 0 -5 -18 -10 -40 -10 -22 0 -40 -4 -40 -10
0 -5 -18 -10 -40 -10 -22 0 -40 -4 -40 -10 0 -5 -18 -10 -40 -10 -22 0 -40 -4
-40 -10 0 -5 -13 -10 -30 -10 -16 0 -30 -4 -30 -10 0 -5 -13 -10 -30 -10 -16
0 -30 -4 -30 -10 0 -5 -13 -10 -30 -10 -16 0 -30 -4 -30 -10 0 -5 -13 -10 -30
-10 -16 0 -30 -4 -30 -10 0 -5 -9 -10 -20 -10 -11 0 -20 -4 -20 -10 0 -5 -13
-10 -30 -10 -16 0 -30 -4 -30 -10 0 -5 -9 -10 -20 -10 -11 0 -20 -4 -20 -10 0
-5 -9 -10 -20 -10 -11 0 -20 -4 -20 -10 0 -5 -7 -10 -15 -10 -8 0 -15 -4 -15
-10 0 -5 -9 -10 -20 -10 -11 0 -20 -4 -20 -10 0 -5 -9 -10 -20 -10 -11 0 -20
-4 -20 -10 0 -5 -9 -10 -20 -10 -11 0 -20 -4 -20 -10 0 -5 -9 -10 -20 -10 -11
0 -20 -4 -20 -10 0 -5 -12 -13 -27 -16 -16 -4 -35 -15 -44 -26 -9 -10 -23 -18
-30 -18 -8 0 -21 -9 -29 -20 -8 -11 -21 -20 -28 -20 -8 0 -27 -13 -42 -30 -15
-16 -33 -30 -40 -30 -7 0 -25 -13 -40 -30 -15 -16 -33 -30 -40 -30 -7 0 -25
-13 -40 -30 -15 -16 -33 -30 -40 -30 -6 0 -33 -22 -60 -50 -27 -27 -54 -50
-60 -50 -6 0 -83 -72 -171 -161 -88 -88 -163 -158 -167 -154 -4 4 -1 10 6 12
7 3 12 22 12 44 0 21 5 39 10 39 6 0 10 18 10 40 0 22 5 40 10 40 6 0 10 14
10 30 0 17 5 30 10 30 6 0 10 18 10 40 0 22 5 40 10 40 6 0 10 14 10 30 0 17
5 30 10 30 6 0 10 9 10 20 0 11 5 20 10 20 6 0 10 9 10 20 0 11 5 20 10 20 6
0 10 9 10 20 0 11 5 20 10 20 6 0 10 9 10 20 0 11 5 20 10 20 6 0 10 8 10 18
0 10 9 24 20 32 11 8 20 21 20 30 0 9 9 22 20 30 11 8 20 19 20 25 0 6 9 17
20 25 11 8 20 20 20 28 0 7 27 40 60 72 33 32 60 64 60 70 0 13 407 420 420
420 11 0 162 151 210 209 14 17 31 31 38 31 7 0 48 36 92 80 44 44 84 80 90
80 6 0 38 27 70 60 32 33 64 60 70 60 6 0 33 23 60 50 27 28 54 50 60 50 6 0
29 18 50 40 21 22 44 40 50 40 7 0 25 14 40 30 15 17 33 30 40 30 6 0 29 18
50 40 21 22 45 40 52 40 7 0 20 9 28 20 8 11 21 20 28 20 8 0 27 14 42 30 15
17 34 30 42 30 7 0 20 9 28 20 8 11 21 20 28 20 8 0 27 14 42 30 15 17 34 30
42 30 7 0 20 9 28 20 8 11 21 20 30 20 9 0 22 9 30 20 8 11 21 20 30 20 9 0
22 9 30 20 8 11 22 20 32 20 10 0 18 5 18 10 0 6 8 10 18 10 10 0 24 9 32 20
8 11 22 20 32 20 10 0 18 5 18 10 0 6 8 10 18 10 10 0 24 9 32 20 8 11 22 20
32 20 10 0 18 5 18 10 0 6 9 10 20 10 11 0 20 5 20 10 0 6 9 10 20 10 11 0 20
5 20 10 0 6 8 10 18 10 10 0 24 9 32 20 8 11 22 20 32 20 10 0 18 5 18 10 0 6
9 10 20 10 11 0 20 5 20 10 0 6 9 10 20 10 11 0 20 5 20 10 0 6 9 10 20 10 11
0 20 5 20 10 0 6 14 10 30 10 17 0 30 5 30 10 0 6 9 10 20 10 11 0 20 5 20 10
0 6 9 10 20 10 11 0 20 5 20 10 0 6 9 10 20 10 11 0 20 5 20 10 0 6 9 10 20
10 11 0 20 5 20 10 0 6 14 10 30 10 17 0 30 5 30 10 0 6 9 10 20 10 11 0 20 5
20 10 0 6 14 10 30 10 17 0 30 5 30 10 0 6 9 10 20 10 11 0 20 5 20 10 0 6 14
10 30 10 17 0 30 5 30 10 0 6 9 10 20 10 11 0 20 5 20 10 0 6 14 10 30 10 17
0 30 5 30 10 0 6 14 10 30 10 17 0 30 5 30 10 0 6 14 10 30 10 17 0 30 5 30
10 0 6 9 10 20 10 11 0 20 5 20 10 0 6 14 10 30 10 17 0 30 5 30 10 0 6 14 10
30 10 17 0 30 5 30 10 0 6 14 10 30 10 17 0 30 5 30 10 0 6 14 10 30 10 17 0
30 5 30 10 0 6 18 10 40 10 22 0 40 5 40 10 0 6 14 10 30 10 17 0 30 5 30 10
0 6 14 10 30 10 17 0 30 5 30 10 0 6 18 10 40 10 22 0 40 5 40 10 0 6 14 10
30 10 17 0 30 5 30 10 0 6 18 10 40 10 22 0 40 5 40 10 0 6 18 10 40 10 22 0
40 5 40 10 0 6 14 10 30 10 17 0 30 5 30 10 0 6 18 10 40 10 22 0 40 5 40 10
0 6 18 10 40 10 22 0 40 5 40 10 0 6 18 10 40 10 22 0 40 5 40 10 0 6 18 10
40 10 22 0 40 5 40 10 0 6 16 10 35 10 19 0 35 5 35 10 0 6 23 10 50 10 28 0
50 5 50 10 0 6 38 10 95 10 l96 0 34 -35z m-8115 -2155 c0 -6 57 -10 150 -10
93 0 150 -4 150 -10 0 -6 38 -10 95 -10 57 0 95 -4 95 -10 0 -6 33 -10 80 -10
47 0 80 -4 80 -10 0 -6 30 -10 70 -10 40 0 70 -4 70 -10 0 -6 27 -10 60 -10
33 0 60 -4 60 -10 0 -5 23 -10 50 -10 28 0 50 -4 50 -10 0 -5 23 -10 50 -10
28 0 50 -4 50 -10 0 -5 23 -10 50 -10 28 0 50 -4 50 -10 0 -5 23 -10 50 -10
28 0 50 -4 50 -10 0 -5 23 -10 50 -10 28 0 50 -4 50 -10 0 -5 23 -10 50 -10
28 0 50 -4 50 -10 0 -5 18 -10 40 -10 22 0 40 -4 40 -10 0 -5 23 -10 50 -10
28 0 50 -4 50 -10 0 -5 18 -10 40 -10 22 0 40 -4 40 -10 0 -5 18 -10 40 -10
22 0 40 -4 40 -10 0 -5 18 -10 40 -10 22 0 40 -4 40 -10 0 -5 18 -10 40 -10
22 0 40 -4 40 -10 0 -5 14 -10 30 -10 17 0 30 -4 30 -10 0 -5 9 -10 20 -10 11
0 20 -4 20 -10 0 -5 9 -10 20 -10 11 0 20 -4 20 -10 0 -5 14 -10 30 -10 17 0
30 -4 30 -10 0 -5 -22 -10 -50 -10 -27 0 -50 -4 -50 -10 0 -6 -57 -10 -150
-10 -93 0 -150 -4 -150 -10 0 -6 -57 -10 -150 -10 -93 0 -150 -4 -150 -10 0
-6 -57 -10 -150 -10 -93 0 -150 -4 -150 -10 0 -6 -56 -10 -149 -10 -82 0 -151
-4 -153 -9 -2 -5 -168 -13 -385 -17 -211 -4 -383 -11 -383 -15 0 -5 -99 -9
-220 -9 -121 0 -220 4 -220 9 0 4 -60 10 -134 13 -126 4 -136 6 -182 34 -69
41 -102 52 -154 53 -35 1 -49 -4 -60 -19 -8 -11 -22 -20 -32 -20 -10 0 -18 -4
-18 -10 0 -5 -9 -10 -20 -10 -11 0 -20 -4 -20 -9 0 -5 -17 -12 -38 -16 -21 -3
-45 -15 -52 -26 -8 -10 -21 -19 -30 -19 -9 0 -22 -9 -30 -20 -8 -11 -21 -20
-30 -20 -9 0 -22 -9 -30 -20 -8 -11 -21 -20 -30 -20 -9 0 -22 -9 -30 -20 -8
-11 -21 -20 -30 -20 -9 0 -22 -9 -30 -20 -8 -12 -26 -20 -42 -20 -15 0 -28 -4
-28 -10 0 -6 -37 -10 -90 -10 -53 0 -90 4 -90 10 0 6 -9 10 -20 10 -11 0 -20
5 -20 10 0 6 -7 10 -16 10 -8 0 -42 27 -74 60 -32 33 -64 60 -70 60 -7 0 -24
13 -39 29 -16 17 -43 32 -64 36 -20 4 -37 11 -37 16 0 5 -22 9 -50 9 -27 0
-50 -4 -50 -10 0 -5 -9 -10 -20 -10 -10 0 -30 -11 -44 -25 -14 -14 -31 -25
-38 -25 -8 0 -20 -9 -28 -20 -8 -11 -21 -20 -30 -20 -9 0 -22 -9 -30 -20 -8
-12 -26 -20 -42 -20 -15 0 -28 -4 -28 -10 0 -5 -13 -10 -30 -10 -16 0 -30 -4
-30 -10 0 -6 -38 -10 -95 -10 -88 0 -98 2 -120 25 -19 18 -25 35 -25 66 0 45
-26 79 -62 79 -10 0 -18 5 -18 10 0 6 -9 10 -20 10 -11 0 -20 5 -20 10 0 6
-18 10 -40 10 -22 0 -40 5 -40 10 0 6 -30 10 -70 10 -40 0 -70 4 -70 10 0 6
-27 10 -60 10 -33 0 -60 4 -60 10 0 6 -13 10 -30 10 -21 0 -30 5 -30 16 0 20
24 44 44 44 9 0 16 5 16 10 0 6 9 10 20 10 11 0 20 5 20 10 0 6 9 10 20 10 11
0 20 5 20 10 0 6 9 10 20 10 11 0 20 5 20 10 0 6 9 10 20 10 11 0 20 5 20 10
0 6 9 10 20 10 11 0 20 5 20 10 0 6 9 10 20 10 11 0 20 5 20 10 0 6 9 10 20
10 11 0 20 5 20 10 0 6 9 10 20 10 11 0 20 5 20 10 0 6 9 10 20 10 11 0 20 5
20 10 0 6 14 10 30 10 17 0 30 5 30 10 0 6 14 10 30 10 17 0 30 5 30 10 0 6
23 10 50 10 28 0 50 5 50 10 0 6 27 10 60 10 33 0 60 4 60 10 0 6 30 10 70 10
40 0 70 4 70 10 0 6 37 10 90 10 53 0 90 4 90 10 0 6 43 10 110 10 67 0 110 4
110 10 0 6 50 10 130 10 80 0 130 4 130 10 0 6 70 10 190 10 120 0 190 4 190
10 0 7 187 10 540 10 353 0 540 -3 540 -10z m5940 -690 c0 -6 57 -10 150 -10
93 0 150 -4 150 -10 0 -6 37 -10 90 -10 53 0 90 -4 90 -10 0 -6 27 -10 60 -10
33 0 60 -4 60 -10 0 -5 23 -10 50 -10 28 0 50 -4 50 -10 0 -5 23 -10 50 -10
28 0 50 -4 50 -10 0 -5 14 -10 30 -10 17 0 30 -4 30 -10 0 -5 18 -10 40 -10
22 0 40 -4 40 -10 0 -5 14 -10 30 -10 17 0 30 -4 30 -10 0 -5 9 -10 20 -10 11
0 20 -4 20 -10 0 -5 14 -10 30 -10 17 0 30 -4 30 -10 0 -5 9 -10 20 -10 11 0
20 -4 20 -10 0 -5 14 -10 30 -10 17 0 30 -4 30 -10 0 -5 9 -10 20 -10 11 0 20
-4 20 -10 0 -5 9 -10 20 -10 11 0 20 -4 20 -10 0 -5 9 -10 20 -10 11 0 20 -4
20 -10 0 -5 9 -10 20 -10 11 0 20 -4 20 -10 0 -5 13 -10 28 -10 16 0 34 -8 42
-20 8 -11 22 -20 32 -20 10 0 18 -4 18 -10 0 -5 9 -10 20 -10 11 0 20 -4 20
-10 0 -5 9 -10 20 -10 11 0 20 -4 20 -10 0 -5 9 -10 20 -10 11 0 20 -4 20 -10
0 -5 8 -10 18 -10 10 0 24 -9 32 -20 8 -11 22 -20 32 -20 10 0 18 -4 18 -10 0
-5 8 -10 18 -10 10 0 24 -9 32 -20 8 -11 21 -20 30 -20 9 0 22 -9 30 -20 8
-11 20 -20 27 -20 7 0 13 -4 13 -10 0 -5 8 -10 18 -10 10 0 24 -9 32 -20 8
-11 21 -20 30 -20 9 0 22 -9 30 -20 8 -11 21 -20 30 -20 9 0 22 -9 30 -20 8
-11 21 -20 28 -20 8 0 27 -13 42 -30 15 -16 34 -30 42 -30 7 0 20 -9 28 -20 8
-11 21 -20 28 -20 8 0 27 -13 42 -30 15 -16 33 -30 40 -30 6 0 29 -18 50 -40
21 -22 43 -40 49 -40 11 0 261 -245 261 -255 0 -3 -9 -5 -20 -5 -11 0 -20 5
-20 10 0 6 -22 10 -50 10 -27 0 -50 5 -50 10 0 6 -22 10 -50 10 -27 0 -50 5
-50 10 0 6 -22 10 -50 10 -27 0 -50 5 -50 10 0 6 -18 10 -40 10 -22 0 -40 5
-40 10 0 6 -18 10 -40 10 -22 0 -40 5 -40 10 0 6 -18 10 -40 10 -22 0 -40 5
-40 10 0 6 -13 10 -30 10 -16 0 -30 5 -30 10 0 6 -13 10 -30 10 -16 0 -30 5
-30 10 0 6 -9 10 -20 10 -11 0 -20 5 -20 10 0 6 -9 10 -20 10 -11 0 -20 5 -20
10 0 6 -16 10 -35 10 -19 0 -35 5 -35 10 0 6 -13 10 -30 10 -16 0 -30 5 -30
10 0 6 -22 10 -50 10 -27 0 -50 5 -50 10 0 6 -22 10 -50 10 -27 0 -50 5 -50
10 0 6 -22 10 -50 10 -27 0 -50 5 -50 10 0 6 -22 10 -50 10 -27 0 -50 5 -50
10 0 6 -22 10 -50 10 -27 0 -50 5 -50 10 0 6 -13 10 -30 10 -16 0 -30 5 -30
10 0 6 -13 10 -30 10 -16 0 -30 5 -30 10 0 6 -13 10 -30 10 -16 0 -30 5 -30
10 0 6 -8 10 -18 10 -10 0 -24 9 -32 20 -8 11 -21 20 -28 20 -8 0 -27 14 -42
30 -15 17 -35 30 -44 30 -9 0 -16 5 -16 10 0 6 -9 10 -20 10 -11 0 -20 5 -20
10 0 6 -18 10 -40 10 -22 0 -40 5 -40 10 0 6 -70 10 -190 10 -120 0 -190 -4
-190 -10 0 -6 -40 -10 -100 -10 -60 0 -100 -4 -100 -10 0 -6 -83 -10 -230 -10
-147 0 -230 4 -230 10 0 6 -13 10 -30 10 -16 0 -30 5 -30 10 0 6 -27 10 -60
10 -33 0 -60 4 -60 10 0 6 -40 10 -100 10 -60 0 -100 -4 -100 -10 0 -6 -60
-10 -160 -10 -100 0 -160 -4 -160 -10 0 -6 -40 -10 -100 -10 -60 0 -100 -4
-100 -10 0 -6 -37 -10 -90 -10 -53 0 -90 -4 -90 -10 0 -6 -30 -10 -70 -10 -40
0 -70 -4 -70 -10 0 -6 -30 -10 -70 -10 -40 0 -70 -4 -70 -10 0 -6 -27 -10 -60
-10 -33 0 -60 -4 -60 -10 0 -5 -20 -10 -45 -10 -25 0 -45 -4 -45 -10 0 -5 -22
-10 -50 -10 -27 0 -50 -4 -50 -10 0 -5 -18 -10 -40 -10 -22 0 -40 -4 -40 -10
0 -5 -22 -10 -50 -10 -27 0 -50 -4 -50 -10 0 -5 -18 -10 -40 -10 -22 0 -40 -4
-40 -10 0 -5 -18 -10 -40 -10 -22 0 -40 -4 -40 -10 0 -5 -18 -10 -40 -10 -22
0 -40 -4 -40 -10 0 -5 -13 -10 -30 -10 -35 0 -38 10 -10 30 11 8 20 22 20 32
0 10 5 18 10 18 6 0 10 9 10 20 0 11 5 20 10 20 6 0 10 9 10 20 0 11 5 20 10
20 6 0 10 9 10 20 0 11 5 20 10 20 6 0 10 8 10 18 0 10 9 24 20 32 11 8 20 20
20 27 0 16 185 203 201 203 6 0 24 14 39 30 15 17 34 30 42 30 7 0 20 9 28 20
8 11 21 20 30 20 9 0 22 9 30 20 8 11 21 20 30 20 9 0 22 9 30 20 8 11 20 20
27 20 7 0 13 5 13 10 0 6 8 10 18 10 10 0 24 9 32 20 8 11 22 20 32 20 10 0
18 5 18 10 0 6 9 10 20 10 11 0 20 5 20 10 0 6 9 10 20 10 11 0 20 5 20 10 0
6 9 10 20 10 11 0 20 5 20 10 0 6 9 10 20 10 11 0 20 5 20 10 0 6 14 10 30 10
17 0 30 5 30 10 0 6 18 10 40 10 22 0 40 5 40 10 0 6 23 10 50 10 28 0 50 5
50 10 0 6 30 10 70 10 40 0 70 4 70 10 0 6 50 10 130 10 80 0 130 4 130 10 0
7 160 10 460 10 300 0 460 -3 460 -10z m-3970 -240 c0 -6 63 -10 170 -10 107
0 170 -4 170 -10 0 -5 23 -10 50 -10 28 0 50 -4 50 -10 0 -5 14 -10 30 -10 29
0 30 -1 30 -50 0 -27 -4 -50 -10 -50 -5 0 -10 -18 -10 -40 0 -22 -4 -40 -10
-40 -5 0 -10 -18 -10 -40 0 -22 -4 -40 -10 -40 -5 0 -10 -18 -10 -40 0 -22 -4
-40 -10 -40 -5 0 -10 -18 -10 -40 0 -22 -4 -40 -10 -40 -5 0 -10 -13 -10 -30
0 -16 -4 -30 -10 -30 -5 0 -10 -13 -10 -30 0 -16 -4 -30 -10 -30 -5 0 -10 -13
-10 -30 0 -16 -4 -30 -10 -30 -5 0 -10 -7 -10 -15 0 -9 -11 -27 -25 -40 -24
-25 -55 -33 -55 -15 0 6 -7 10 -16 10 -9 0 -29 14 -44 30 -15 17 -35 30 -44
30 -9 0 -16 5 -16 10 0 6 -13 10 -30 10 -16 0 -30 5 -30 10 0 6 -13 10 -30 10
-16 0 -30 5 -30 10 0 6 -35 10 -85 10 -84 0 -86 -1 -120 -35 -27 -26 -35 -43
-35 -70 0 -19 -4 -35 -10 -35 -6 0 -10 -33 -10 -80 0 -47 -4 -80 -10 -80 -5 0
-10 -13 -10 -30 0 -16 -4 -30 -10 -30 -5 0 -10 -7 -10 -16 0 -9 -13 -29 -30
-44 -16 -15 -30 -35 -30 -44 0 -9 -8 -16 -18 -16 -10 0 -24 -9 -32 -20 -8 -11
-21 -20 -30 -20 -9 0 -22 -9 -30 -20 -8 -11 -22 -20 -32 -20 -10 0 -18 -4 -18
-10 0 -5 -13 -10 -30 -10 -16 0 -30 -4 -30 -10 0 -5 -9 -10 -20 -10 -11 0 -20
-4 -20 -10 0 -5 -18 -10 -40 -10 -22 0 -40 -4 -40 -10 0 -6 -33 -10 -80 -10
-47 0 -80 4 -80 10 0 6 -7 10 -15 10 -20 0 -65 45 -65 65 0 8 -4 15 -10 15 -5
0 -10 9 -10 20 0 11 -4 20 -10 20 -5 0 -10 7 -10 15 0 20 -65 85 -85 85 -8 0
-15 5 -15 10 0 6 -9 10 -20 10 -11 0 -20 5 -20 10 0 6 -18 10 -40 10 -22 0
-40 -4 -40 -10 0 -5 -7 -10 -15 -10 -19 0 -105 -84 -105 -103 0 -7 -9 -19 -20
-27 -11 -8 -20 -22 -20 -32 0 -10 -4 -18 -10 -18 -5 0 -10 -9 -10 -20 0 -11
-4 -20 -10 -20 -5 0 -10 -8 -10 -18 0 -10 -9 -24 -20 -32 -11 -8 -20 -21 -20
-28 0 -7 -18 -31 -40 -52 -22 -21 -40 -43 -40 -49 0 -11 -18 -31 -137 -156
-29 -30 -53 -60 -53 -66 0 -6 -13 -24 -30 -39 -16 -15 -30 -34 -30 -42 0 -7
-9 -20 -20 -28 -11 -8 -20 -22 -20 -32 0 -10 -4 -18 -10 -18 -5 0 -10 -13 -10
-30 0 -16 -4 -30 -10 -30 -5 0 -10 -9 -10 -20 0 -11 -4 -20 -10 -20 -5 0 -10
-7 -10 -16 0 -20 -24 -44 -44 -44 -9 0 -16 -4 -16 -10 0 -5 -25 -10 -55 -10
-50 0 -59 3 -90 35 -30 29 -35 41 -35 80 0 25 -4 45 -10 45 -5 0 -10 9 -10 20
0 13 -7 20 -19 20 -11 0 -22 6 -25 13 -5 10 -7 10 -12 0 -3 -7 -23 -13 -45
-13 -21 0 -39 -4 -39 -10 0 -5 -9 -10 -20 -10 -11 0 -20 -4 -20 -10 0 -5 -8
-10 -18 -10 -10 0 -24 -9 -32 -20 -8 -11 -20 -20 -27 -20 -16 0 -163 -145
-163 -161 0 -6 -18 -28 -40 -49 -22 -21 -40 -44 -40 -50 0 -6 -18 -29 -40 -50
-22 -21 -40 -44 -40 -50 0 -7 -13 -25 -30 -40 -16 -15 -30 -33 -30 -39 0 -17
-188 -201 -205 -201 -8 0 -15 -4 -15 -10 0 -5 -9 -10 -20 -10 -11 0 -20 -4
-20 -10 0 -5 -9 -10 -20 -10 -11 0 -20 -4 -20 -10 0 -5 -13 -10 -30 -10 -16 0
-30 -4 -30 -10 0 -5 -9 -10 -20 -10 -11 0 -20 -4 -20 -10 0 -5 -13 -10 -30
-10 -16 0 -30 -4 -30 -10 0 -5 -9 -10 -20 -10 -11 0 -20 -4 -20 -10 0 -5 -13
-10 -30 -10 -16 0 -30 -4 -30 -10 0 -5 -13 -10 -30 -10 -16 0 -30 -4 -30 -10
0 -5 -13 -10 -30 -10 -16 0 -30 -4 -30 -10 0 -5 -13 -10 -30 -10 -16 0 -30 -4
-30 -10 0 -5 -13 -10 -30 -10 -16 0 -30 -4 -30 -10 0 -5 -22 -10 -50 -10 -27
0 -50 -4 -50 -10 0 -6 -27 -10 -60 -10 -33 0 -60 4 -60 10 0 6 -7 10 -15 10
-9 0 -27 11 -40 25 -19 18 -25 35 -25 70 0 25 5 45 10 45 6 0 10 14 10 30 0
17 5 30 10 30 6 0 10 14 10 30 0 17 5 30 10 30 6 0 10 14 10 30 0 17 5 30 10
30 6 0 10 9 10 20 0 11 5 20 10 20 6 0 10 9 10 20 0 11 5 20 10 20 6 0 10 9
10 20 0 11 5 20 10 20 6 0 10 9 10 20 0 11 5 20 10 20 6 0 10 8 10 18 0 10 9
24 20 32 11 8 20 21 20 30 0 9 9 22 20 30 11 8 20 21 20 30 0 9 9 22 20 30 11
8 20 21 20 28 0 8 14 27 30 42 17 15 30 33 30 39 0 14 206 221 220 221 6 0 51
41 100 90 49 50 94 90 100 90 6 0 51 41 100 90 49 50 94 90 100 90 6 0 46 36
90 80 44 44 84 80 90 80 6 0 33 23 60 50 27 28 54 50 60 50 6 0 33 23 60 50
27 28 54 50 60 50 6 0 29 18 50 40 21 22 44 40 50 40 7 0 25 14 40 30 15 17
33 30 40 30 7 0 25 14 40 30 15 17 34 30 42 30 7 0 20 9 28 20 8 11 21 20 28
20 8 0 27 14 42 30 15 17 34 30 42 30 7 0 20 9 28 20 8 11 21 20 30 20 9 0 22
9 30 20 8 11 22 20 32 20 10 0 18 5 18 10 0 6 8 10 18 10 10 0 24 9 32 20 8
11 21 20 30 20 9 0 22 9 30 20 8 11 22 20 32 20 10 0 18 5 18 10 0 6 8 10 18
10 10 0 24 9 32 20 8 11 22 20 32 20 10 0 18 5 18 10 0 6 9 10 20 10 11 0 20
5 20 10 0 6 9 10 20 10 11 0 20 5 20 10 0 6 7 10 15 10 8 0 15 5 15 10 0 6 9
10 20 10 11 0 20 5 20 10 0 6 8 10 18 10 10 0 24 9 32 20 8 11 22 20 32 20 10
0 18 5 18 10 0 6 9 10 20 10 11 0 20 5 20 10 0 6 9 10 20 10 11 0 20 5 20 10
0 6 14 10 30 10 17 0 30 5 30 10 0 6 9 10 20 10 11 0 20 5 20 10 0 6 9 10 20
10 11 0 20 5 20 10 0 6 9 10 20 10 11 0 20 5 20 10 0 6 14 10 30 10 17 0 30 5
30 10 0 6 9 10 20 10 11 0 20 5 20 10 0 6 14 10 30 10 17 0 30 5 30 10 0 6 14
10 30 10 17 0 30 5 30 10 0 6 14 10 30 10 17 0 30 5 30 10 0 6 23 10 50 10 28
0 50 5 50 10 0 6 23 10 50 10 28 0 50 5 50 10 0 6 33 10 80 10 47 0 80 4 80
10 0 6 67 10 180 10 113 0 180 4 180 10 0 6 33 10 80 10 47 0 80 -4 80 -10z
m580 -840 c0 -5 9 -10 20 -10 11 0 20 -4 20 -10 0 -5 9 -10 20 -10 11 0 20 -4
20 -10 0 -5 8 -10 18 -10 10 0 24 -9 32 -20 8 -11 20 -20 28 -20 7 0 28 -16
48 -35 l35 -35 -25 -25 c-14 -14 -32 -25 -41 -25 -8 0 -15 -4 -15 -10 0 -5 -9
-10 -20 -10 -11 0 -20 -4 -20 -10 0 -5 -16 -10 -35 -10 -43 0 -85 37 -85 75 0
14 -4 25 -10 25 -5 0 -10 14 -10 30 0 17 -4 30 -10 30 -5 0 -10 18 -10 40 0
22 -4 40 -10 40 -5 0 -10 5 -10 10 0 6 14 10 30 10 17 0 30 -4 30 -10z m1750
-140 c0 -6 36 -10 88 -10 76 0 89 -3 102 -20 8 -11 22 -20 32 -20 10 0 18 -4
18 -10 0 -5 8 -10 18 -10 10 0 24 -9 32 -20 8 -11 21 -20 30 -20 9 0 22 -9 30
-20 8 -11 22 -20 32 -20 10 0 18 -4 18 -10 0 -5 8 -10 18 -10 10 0 24 -9 32
-20 8 -11 21 -20 30 -20 9 0 22 -9 30 -20 8 -11 22 -20 32 -20 10 0 18 -4 18
-10 0 -5 8 -10 18 -10 10 0 24 -9 32 -20 8 -11 21 -20 30 -20 9 0 22 -9 30
-20 8 -11 22 -20 32 -20 10 0 18 -4 18 -10 0 -5 8 -10 18 -10 10 0 24 -9 32
-20 8 -11 21 -20 28 -20 8 0 27 -13 42 -30 15 -16 33 -30 40 -30 7 0 25 -13
40 -30 15 -16 33 -30 40 -30 7 0 25 -13 40 -30 15 -16 33 -30 40 -30 6 0 33
-22 60 -50 27 -27 54 -50 59 -50 6 0 99 -88 206 -195 107 -107 195 -200 195
-206 0 -5 23 -32 50 -59 28 -27 50 -54 50 -60 0 -6 18 -29 40 -50 22 -21 40
-44 40 -50 0 -7 14 -25 30 -40 17 -15 30 -34 30 -42 0 -7 9 -20 20 -28 11 -8
20 -21 20 -30 0 -9 9 -22 20 -30 11 -8 20 -21 20 -30 0 -9 9 -22 20 -30 11 -8
20 -21 20 -30 0 -9 9 -22 20 -30 11 -8 20 -22 20 -32 0 -10 5 -18 10 -18 6 0
10 -8 10 -18 0 -10 9 -24 20 -32 11 -8 20 -22 20 -32 0 -10 5 -18 10 -18 6 0
10 -9 10 -20 0 -11 5 -20 10 -20 6 0 10 -8 10 -18 0 -10 9 -24 20 -32 11 -8
20 -22 20 -32 0 -10 5 -18 10 -18 6 0 10 -9 10 -20 0 -11 5 -20 10 -20 6 0 10
-9 10 -20 0 -11 5 -20 10 -20 6 0 10 -9 10 -20 0 -11 5 -20 10 -20 6 0 10 -9
10 -20 0 -11 5 -20 10 -20 6 0 10 -9 10 -20 0 -11 5 -20 10 -20 6 0 10 -9 10
-20 0 -11 5 -20 10 -20 6 0 10 -9 10 -20 0 -11 5 -20 10 -20 6 0 10 -9 10 -20
0 -11 5 -20 10 -20 6 0 10 -9 10 -20 0 -11 5 -20 10 -20 6 0 10 -9 10 -20 0
-11 5 -20 10 -20 6 0 10 -9 10 -20 0 -11 5 -20 10 -20 6 0 10 -7 10 -15 0 -8
5 -15 10 -15 6 0 10 -7 10 -16 0 -9 13 -39 28 -67 15 -29 34 -68 42 -87 8 -19
22 -41 31 -48 10 -7 27 -38 39 -70 12 -31 32 -68 45 -82 31 -33 42 -62 50
-143 4 -37 11 -67 16 -67 5 0 9 -9 9 -20 0 -11 5 -20 10 -20 6 0 10 -9 10 -20
0 -11 5 -20 10 -20 6 0 10 -9 10 -20 0 -19 -7 -20 -120 -20 -73 0 -120 4 -120
10 0 6 -7 10 -15 10 -19 0 -105 84 -105 103 0 7 -9 19 -20 27 -11 8 -20 22
-20 32 0 10 -4 18 -10 18 -5 0 -10 9 -10 20 0 11 -4 20 -10 20 -5 0 -10 9 -10
20 0 11 -4 20 -10 20 -5 0 -10 9 -10 20 0 11 -4 20 -10 20 -5 0 -10 14 -10 30
0 17 -4 30 -10 30 -5 0 -10 9 -10 20 0 11 -4 20 -10 20 -5 0 -10 14 -10 30 0
17 -4 30 -10 30 -5 0 -10 14 -10 30 0 17 -4 30 -10 30 -5 0 -10 9 -10 20 0 11
-4 20 -10 20 -5 0 -10 14 -10 30 0 17 -4 30 -10 30 -5 0 -10 9 -10 20 0 11 -4
20 -10 20 -5 0 -10 11 -10 25 0 14 -4 25 -10 25 -5 0 -10 9 -10 20 0 11 -4 20
-10 20 -5 0 -10 9 -10 20 0 11 -4 20 -10 20 -5 0 -10 9 -10 20 0 11 -4 20 -10
20 -5 0 -10 8 -10 18 0 10 -9 24 -20 32 -11 8 -20 21 -20 30 0 9 -9 22 -20 30
-11 8 -20 22 -20 32 0 10 -4 18 -10 18 -5 0 -10 9 -10 20 0 11 -4 20 -10 20
-5 0 -10 16 -10 35 0 27 -8 44 -35 70 -19 19 -41 35 -50 35 -8 0 -15 5 -15 10
0 6 -13 10 -30 10 -16 0 -30 5 -30 10 0 6 -47 10 -120 10 -73 0 -120 4 -120
10 0 6 -30 10 -70 10 -40 0 -70 4 -70 10 0 6 -13 10 -30 10 -16 0 -30 5 -30
10 0 6 -8 10 -18 10 -10 0 -24 9 -32 20 -8 11 -20 20 -28 20 -7 0 -20 6 -28
14 -8 8 -14 21 -14 28 0 8 -9 20 -20 28 -11 8 -20 22 -20 32 0 10 -4 18 -10
18 -5 0 -10 9 -10 20 0 11 -4 20 -10 20 -5 0 -10 8 -10 18 0 10 -9 24 -20 32
-11 8 -20 21 -20 30 0 9 -9 22 -20 30 -11 8 -20 21 -20 30 0 9 -9 22 -20 30
-11 8 -20 21 -20 30 0 9 -9 22 -20 30 -11 8 -20 21 -20 28 0 8 -13 27 -30 42
-16 15 -30 33 -30 40 0 6 -18 29 -40 50 -22 21 -40 43 -40 49 0 16 -107 121
-123 121 -7 0 -19 9 -27 20 -8 11 -21 20 -30 20 -9 0 -22 9 -30 20 -8 11 -22
20 -32 20 -10 0 -18 5 -18 10 0 6 -13 10 -30 10 -16 0 -30 5 -30 10 0 6 -43
10 -110 10 -67 0 -110 4 -110 10 0 6 -22 10 -50 10 -27 0 -50 5 -50 10 0 6
-13 10 -30 10 -16 0 -30 5 -30 10 0 6 -8 10 -18 10 -10 0 -24 9 -32 20 -8 11
-20 20 -28 20 -7 0 -40 27 -72 60 -32 33 -66 60 -74 60 -9 0 -16 5 -16 10 0 6
-7 10 -15 10 -8 0 -15 5 -15 10 0 6 -9 10 -20 10 -11 0 -20 5 -20 10 0 6 -11
10 -25 10 -29 0 -95 59 -95 85 0 8 -4 15 -10 15 -5 0 -10 14 -10 30 0 17 -4
30 -10 30 -6 0 -10 57 -10 150 0 93 4 150 10 150 6 0 10 11 10 25 0 29 79 115
105 115 8 0 15 5 15 10 0 6 55 10 145 10 90 0 145 -4 145 -10z m-1110 -400 c0
-16 5 -30 10 -30 6 0 10 -30 10 -70 0 -40 -4 -70 -10 -70 -6 0 -10 -33 -10
-80 0 -47 -4 -80 -10 -80 -5 0 -10 -18 -10 -40 0 -22 -4 -40 -10 -40 -5 0 -10
9 -10 20 0 11 -4 20 -10 20 -5 0 -10 8 -10 18 0 10 -9 24 -20 32 -11 8 -20 21
-20 30 0 9 -9 22 -20 30 -11 8 -20 21 -20 30 0 9 -9 22 -20 30 -11 8 -20 22
-20 32 0 10 -4 18 -10 18 -5 0 -10 9 -10 20 0 11 -4 20 -10 20 -5 0 -10 9 -10
20 0 11 -4 20 -10 20 -18 0 -10 31 15 55 13 14 36 25 50 25 14 0 25 5 25 10 0
6 30 10 70 10 l70 0 0 -30z m-460 -380 c0 -5 9 -10 20 -10 19 0 20 -7 20 -130
0 -80 -4 -130 -10 -130 -5 0 -10 -22 -10 -50 0 -27 -4 -50 -10 -50 -5 0 -10
-9 -10 -20 0 -11 -4 -20 -10 -20 -5 0 -10 -9 -10 -20 0 -11 -4 -20 -10 -20 -5
0 -10 -7 -10 -15 0 -19 -64 -85 -82 -85 -8 0 -20 -9 -28 -20 -8 -11 -21 -20
-30 -20 -9 0 -22 -9 -30 -20 -8 -11 -22 -20 -32 -20 -10 0 -18 -4 -18 -10 0
-5 -9 -10 -19 -10 -11 0 -21 -5 -23 -12 -6 -16 -58 35 -58 57 0 8 -4 15 -10
15 -5 0 -10 9 -10 20 0 11 -4 20 -10 20 -5 0 -10 23 -10 50 0 28 5 50 10 50 6
0 10 27 10 60 0 33 4 60 10 60 6 0 10 18 10 40 0 22 5 40 10 40 6 0 10 18 10
40 0 22 5 40 10 40 6 0 10 14 10 30 0 17 5 30 10 30 6 0 10 14 10 30 0 17 5
30 10 30 6 0 10 9 10 20 0 13 7 20 20 20 11 0 20 5 20 10 0 6 47 10 120 10 73
0 120 -4 120 -10z m500 -700 c0 -5 -4 -10 -10 -10 -5 0 -10 -13 -10 -30 0 -16
-4 -30 -10 -30 -5 0 -10 -18 -10 -40 0 -22 -4 -40 -10 -40 -5 0 -10 -13 -10
-30 0 -16 -4 -30 -10 -30 -5 0 -10 -13 -10 -30 0 -16 -4 -30 -10 -30 -5 0 -10
-13 -10 -30 0 -16 -4 -30 -10 -30 -5 0 -10 -13 -10 -30 0 -16 -4 -30 -10 -30
-5 0 -10 -7 -10 -15 0 -27 -47 -65 -80 -65 -32 0 -80 37 -80 62 0 8 -9 20 -20
28 -12 8 -20 26 -20 42 0 15 -4 28 -10 28 -5 0 -10 14 -10 30 0 17 -4 30 -10
30 -5 0 -10 9 -10 20 0 11 5 20 10 20 6 0 10 11 10 25 0 29 79 115 105 115 8
0 15 5 15 10 0 6 9 10 20 10 11 0 20 5 20 10 0 6 9 10 20 10 11 0 20 5 20 10
0 6 18 10 40 10 22 0 40 5 40 10 0 6 18 10 40 10 22 0 40 -4 40 -10z m-715
-565 c41 -41 75 -81 75 -90 0 -8 5 -15 10 -15 6 0 10 -9 10 -20 0 -11 5 -20
10 -20 6 0 10 -13 10 -30 0 -16 5 -30 10 -30 6 0 10 -18 10 -40 0 -22 -4 -40
-10 -40 -5 0 -10 -16 -10 -35 0 -19 -4 -35 -10 -35 -5 0 -10 -9 -10 -20 0 -11
-4 -20 -10 -20 -5 0 -10 -7 -10 -15 0 -19 -164 -185 -183 -185 -7 0 -19 -9
-27 -20 -8 -11 -22 -20 -32 -20 -10 0 -18 -4 -18 -10 0 -5 -18 -10 -40 -10
-33 0 -40 3 -40 20 0 11 -4 20 -10 20 -6 0 -10 40 -10 100 0 60 4 100 10 100
6 0 10 27 10 60 0 33 4 60 10 60 6 0 10 20 10 45 0 25 5 45 10 45 6 0 10 18
10 40 0 22 5 40 10 40 6 0 10 14 10 30 0 17 5 30 10 30 6 0 10 11 10 25 0 27
74 113 98 114 7 1 46 -33 87 -74z m581 -569 c8 -8 14 -22 14 -30 0 -9 5 -16
10 -16 6 0 10 -50 10 -130 0 -80 -4 -130 -10 -130 -6 0 -10 -27 -10 -60 0 -33
-4 -60 -10 -60 -5 0 -10 -18 -10 -40 0 -22 -4 -40 -10 -40 -5 0 -10 -18 -10
-40 0 -22 -4 -40 -10 -40 -5 0 -10 -18 -10 -40 0 -22 -4 -40 -10 -40 -5 0 -10
-12 -10 -26 0 -33 -21 -54 -54 -54 -14 0 -26 -4 -26 -10 0 -5 -18 -10 -40 -10
-22 0 -40 -4 -40 -10 0 -6 -37 -10 -90 -10 -53 0 -90 4 -90 10 0 6 -9 10 -20
10 -13 0 -20 7 -20 18 0 10 -9 24 -20 32 -12 8 -20 26 -20 42 0 15 -4 28 -10
28 -6 0 -10 50 -10 130 0 80 4 130 10 130 6 0 10 9 10 20 0 11 5 20 10 20 6 0
10 8 10 18 0 10 9 24 20 32 11 8 20 20 20 28 0 16 45 62 61 62 6 0 24 14 39
30 15 17 33 30 40 30 7 0 25 14 40 30 15 17 34 30 42 30 7 0 20 9 28 20 8 11
21 20 30 20 8 0 26 14 40 30 28 33 81 41 106 16z m-841 -781 c30 -30 55 -60
55 -66 0 -6 18 -28 40 -49 22 -21 40 -46 40 -54 0 -9 5 -16 10 -16 6 0 10 -9
10 -20 0 -11 5 -20 10 -20 6 0 10 -9 10 -20 0 -11 5 -20 10 -20 6 0 10 -27 10
-60 0 -33 -4 -60 -10 -60 -5 0 -10 -7 -10 -16 0 -20 -24 -44 -44 -44 -9 0 -16
-4 -16 -10 0 -5 -9 -10 -20 -10 -11 0 -20 -4 -20 -10 0 -5 -9 -10 -20 -10 -11
0 -20 -4 -20 -10 0 -5 -13 -10 -30 -10 -16 0 -30 -4 -30 -10 0 -5 -13 -10 -30
-10 l-30 0 0 290 c0 253 2 290 15 290 9 0 40 -25 70 -55z m515 -615 c0 -5 14
-10 30 -10 17 0 30 -4 30 -10 0 -5 9 -10 20 -10 11 0 20 -4 20 -10 0 -5 7 -10
16 -10 8 0 33 -18 54 -40 21 -22 44 -40 50 -40 15 0 40 -25 40 -40 0 -7 14
-25 30 -40 17 -15 30 -35 30 -44 0 -9 5 -16 10 -16 6 0 10 -18 10 -40 0 -22 5
-40 10 -40 6 0 10 -18 10 -40 0 -22 -4 -40 -10 -40 -5 0 -10 -18 -10 -40 0
-22 -4 -40 -10 -40 -5 0 -10 -13 -10 -30 0 -16 -4 -30 -10 -30 -5 0 -10 -9
-10 -20 0 -11 -4 -20 -10 -20 -5 0 -10 -9 -10 -20 0 -11 -4 -20 -10 -20 -5 0
-10 -8 -10 -18 0 -10 -9 -24 -20 -32 -11 -8 -20 -20 -20 -27 0 -18 -86 -103
-104 -103 -8 0 -17 -6 -20 -12 -5 -10 -7 -10 -12 0 -4 8 -29 12 -75 12 -39 0
-69 4 -69 10 0 6 -22 10 -50 10 -27 0 -50 5 -50 10 0 6 -13 10 -30 10 -16 0
-30 5 -30 10 0 6 -18 10 -40 10 -22 0 -40 5 -40 10 0 6 -9 10 -20 10 -11 0
-20 5 -20 10 0 6 -9 10 -20 10 -11 0 -20 5 -20 10 0 6 -9 10 -20 10 -11 0 -20
5 -20 10 0 6 -7 10 -15 10 -20 0 -105 85 -105 105 0 8 -4 15 -10 15 -6 0 -10
40 -10 100 0 60 4 100 10 100 6 0 10 13 10 28 0 16 8 34 20 42 11 8 20 20 20
27 0 17 106 123 123 123 7 0 19 9 27 20 8 11 21 20 30 20 9 0 22 9 30 20 8 11
22 20 32 20 10 0 18 5 18 10 0 6 9 10 20 10 11 0 20 5 20 10 0 6 14 10 30 10
17 0 30 5 30 10 0 6 18 10 40 10 22 0 40 5 40 10 0 6 14 10 30 10 17 0 30 -4
30 -10z m460 -1120 c0 -120 -4 -190 -10 -190 -5 0 -10 -11 -10 -25 0 -29 -40
-75 -65 -75 -8 0 -15 -4 -15 -10 0 -5 -13 -10 -30 -10 -16 0 -30 5 -30 10 0 6
-7 10 -15 10 -25 0 -65 46 -65 75 0 14 -4 25 -10 25 -5 0 -10 18 -10 40 0 22
-4 40 -10 40 -6 0 -10 39 -10 96 0 98 9 124 44 124 9 0 16 5 16 10 0 6 14 10
30 10 17 0 30 5 30 10 0 6 14 10 30 10 17 0 30 5 30 10 0 6 18 10 40 10 22 0
40 5 40 10 0 6 5 10 10 10 6 0 10 -70 10 -190z m-680 -400 c0 -5 21 -10 46
-10 38 0 51 -5 74 -30 15 -16 35 -30 44 -30 9 0 16 -4 16 -10 0 -5 9 -10 20
-10 11 0 20 -4 20 -10 0 -5 9 -10 20 -10 11 0 20 -4 20 -10 0 -5 18 -10 40
-10 22 0 40 -4 40 -10 0 -5 18 -10 40 -10 38 0 40 -2 40 -30 0 -16 -4 -30 -10
-30 -5 0 -10 -9 -10 -20 0 -11 -4 -20 -10 -20 -5 0 -10 -9 -10 -20 0 -11 -4
-20 -10 -20 -5 0 -10 -9 -10 -20 0 -11 -4 -20 -10 -20 -5 0 -10 -8 -10 -18 0
-10 -9 -24 -20 -32 -11 -8 -20 -22 -20 -32 0 -10 -4 -18 -10 -18 -5 0 -10 -9
-10 -20 0 -11 -4 -20 -10 -20 -5 0 -10 -9 -10 -20 0 -11 -4 -20 -10 -20 -5 0
-10 -5 -10 -11 0 -26 -30 -39 -94 -39 -37 0 -66 4 -66 10 0 6 -22 10 -50 10
-27 0 -50 4 -50 9 0 4 -31 12 -70 15 -38 4 -70 11 -70 17 0 5 -18 9 -40 9 -22
0 -40 5 -40 10 0 6 -13 10 -30 10 -16 0 -30 5 -30 10 0 6 -7 10 -16 10 -23 0
-44 25 -44 54 0 14 -4 26 -10 26 -5 0 -10 18 -10 40 0 22 -4 40 -10 40 -6 0
-10 35 -10 85 0 84 1 86 35 120 19 19 41 35 50 35 8 0 15 5 15 10 0 6 14 10
30 10 17 0 30 5 30 10 0 6 30 10 70 10 40 0 70 4 70 10 0 6 23 10 50 10 28 0
50 -4 50 -10z m620 -700 c0 -22 5 -40 10 -40 6 0 10 -33 10 -80 0 -47 4 -80
10 -80 6 0 10 -22 10 -50 0 -27 -4 -50 -10 -50 -5 0 -10 -13 -10 -30 0 -23 -4
-30 -20 -30 -11 0 -20 -4 -20 -10 0 -5 -9 -10 -20 -10 -11 0 -20 5 -20 10 0 6
-13 10 -30 10 -16 0 -30 5 -30 10 0 6 -7 10 -15 10 -9 0 -31 16 -50 35 -27 26
-35 43 -35 70 0 19 5 35 10 35 6 0 10 8 10 18 0 10 9 24 20 32 11 8 20 20 20
27 0 14 139 161 153 162 4 1 7 -17 7 -39z"/>
<path d="M14680 5663 c103 -37 313 -135 380 -177 87 -54 175 -104 290 -164 95
-49 127 -77 175 -151 51 -77 121 -147 186 -184 25 -14 61 -43 80 -64 37 -40
174 -159 274 -235 81 -62 159 -145 183 -193 28 -56 77 -173 91 -216 6 -20 25
-49 43 -65 17 -16 56 -67 87 -114 31 -47 76 -111 99 -142 47 -61 82 -142 82
-186 -1 -38 -32 -102 -66 -134 -62 -58 -64 -58 -570 -64 -488 -5 -611 2 -739
42 -28 9 -104 18 -175 21 -69 2 -167 13 -217 24 -51 10 -126 19 -167 19 -41 0
-76 4 -78 10 -1 5 -41 12 -88 16 -47 4 -87 11 -90 15 -3 5 -116 11 -250 15
-140 4 -248 11 -251 17 -4 6 -249 11 -648 15 -352 3 -641 8 -641 12 0 4 -137
11 -305 15 -168 4 -305 11 -305 15 0 4 -279 9 -621 12 -488 4 -623 8 -629 18
-9 15 -747 29 -955 18 -320 -17 -462 -20 -535 -8 -41 6 -172 14 -290 16 -180
5 -243 2 -388 -15 -96 -12 -203 -21 -238 -21 -67 0 -478 43 -574 60 -92 17
-489 60 -546 60 -30 0 -54 -4 -54 -9 0 -5 -86 -12 -190 -16 -104 -4 -190 -11
-190 -15 0 -4 -75 -10 -167 -14 -93 -4 -169 -12 -171 -17 -2 -5 -27 -9 -55 -9
-83 0 -347 -23 -347 -31 0 -4 -47 -10 -105 -14 -58 -4 -105 -11 -105 -15 0 -4
-46 -11 -102 -15 -57 -4 -105 -11 -108 -16 -3 -4 -57 -11 -120 -15 -65 -4
-118 -12 -122 -18 -5 -8 -164 -11 -545 -12 l-538 0 -235 -32 c-129 -17 -269
-34 -311 -37 -84 -8 -396 11 -446 26 -74 23 -126 98 -126 184 -1 69 21 239 38
300 20 70 46 108 103 152 27 21 72 71 101 111 29 40 80 94 114 120 72 55 112
95 150 148 38 52 114 114 198 160 67 36 156 120 252 238 38 46 86 77 140 90
15 3 27 13 27 20 0 8 16 20 35 26 19 6 35 15 35 20 0 5 14 11 30 15 17 4 30
10 30 15 0 5 13 11 30 15 16 4 30 10 30 15 0 5 13 11 30 15 17 4 30 13 30 21
0 9 3 13 8 11 4 -3 16 -1 27 4 16 6 12 8 -17 8 -20 1 -38 -3 -40 -8 -1 -6
-104 -17 -228 -25 -124 -8 -255 -20 -291 -25 -36 -5 -133 -14 -215 -20 -82 -6
-223 -15 -314 -22 -91 -6 -166 -15 -168 -20 -2 -5 -34 -9 -72 -9 -38 0 -70 -4
-72 -9 -5 -13 -373 -31 -645 -31 -319 0 -806 20 -815 34 -4 6 -8 7 -8 3 0 -16
54 -114 100 -182 26 -38 57 -90 70 -115 12 -25 46 -79 74 -120 29 -41 69 -105
90 -143 20 -37 59 -96 86 -131 27 -35 63 -88 81 -117 18 -30 53 -81 79 -114
25 -33 75 -100 110 -150 34 -49 82 -112 105 -140 23 -27 61 -78 84 -113 23
-34 68 -90 99 -125 32 -34 81 -93 109 -132 28 -38 70 -88 93 -110 23 -22 73
-76 110 -120 193 -228 783 -791 1033 -986 43 -34 106 -86 140 -116 33 -30 90
-75 126 -100 36 -25 90 -67 121 -93 30 -26 93 -73 140 -104 47 -30 111 -76
144 -101 32 -25 91 -64 130 -87 39 -22 94 -58 121 -79 28 -20 84 -56 125 -79
41 -23 116 -68 165 -100 50 -32 118 -72 153 -89 34 -17 86 -47 115 -65 30 -19
103 -59 163 -89 60 -30 136 -70 169 -89 33 -18 85 -44 115 -57 30 -13 105 -50
166 -82 62 -33 150 -72 195 -88 46 -16 113 -43 147 -61 35 -18 105 -47 155
-65 51 -18 129 -49 174 -69 45 -20 121 -48 169 -62 49 -14 106 -35 128 -46 56
-29 139 -56 219 -73 38 -8 121 -33 186 -55 64 -22 127 -40 140 -40 12 0 75
-18 140 -40 65 -22 163 -47 217 -55 55 -9 126 -24 159 -35 65 -20 138 -35 225
-45 30 -4 86 -15 125 -26 38 -10 123 -26 190 -34 66 -9 153 -22 193 -31 40 -8
123 -19 185 -24 61 -5 155 -17 207 -25 52 -8 129 -15 170 -15 41 0 93 -5 115
-11 71 -19 701 -29 1050 -17 138 5 291 9 340 8 50 0 117 4 150 10 33 5 118 14
189 19 70 6 163 17 205 25 42 8 110 17 151 21 41 3 107 13 145 21 39 8 126 24
195 34 69 11 156 29 195 40 38 11 81 20 96 20 15 0 71 11 125 25 55 14 137 32
184 41 47 8 119 25 160 38 41 14 111 32 155 41 44 10 112 29 150 43 39 14 103
33 143 43 41 11 113 34 160 53 48 18 121 45 162 59 189 64 334 118 406 150 44
19 97 40 119 47 22 7 75 30 117 51 43 22 113 53 155 70 43 17 96 41 118 54 22
12 76 38 120 56 44 18 105 47 136 65 32 17 99 52 151 76 52 25 120 61 151 81
31 20 90 53 129 73 40 20 92 50 116 66 24 16 71 45 105 64 108 61 512 327 641
422 35 26 90 63 122 84 33 20 85 59 116 86 31 28 90 75 130 106 69 54 210 170
405 336 218 185 654 622 885 886 186 213 236 271 283 334 27 36 72 92 100 125
29 33 66 81 84 107 17 26 50 69 73 95 23 27 71 93 108 148 36 55 91 136 120
180 111 166 199 302 237 370 22 39 60 104 85 145 25 41 70 118 101 170 l55 95
-81 6 c-45 4 -359 12 -697 19 -339 7 -616 16 -618 21 -2 5 -29 9 -60 9 -110 0
-522 24 -522 30 0 4 -55 10 -122 14 -67 4 -125 10 -128 14 -5 7 -261 42 -422
58 -38 4 -68 11 -68 15 0 5 -18 9 -40 9 -22 0 -40 4 -40 8 0 5 -78 17 -172 27
-95 10 -175 21 -178 25 -3 3 -125 19 -272 35 -183 19 -268 32 -268 40 0 13
-18 15 -355 40 -198 15 -251 17 -225 8z"/>
</g>
</svg>
